<svg xmlns="http://www.w3.org/2000/svg" xmlns:xlink="http://www.w3.org/1999/xlink" version="1.1" id="Layer_1" x="0px" y="0px" style="enable-background:new 0 0 212 202.9;" xml:space="preserve" viewBox="-0.2 61.6 210.95 76.57"><style type="text/css">	.st0{fill:#1D1D1B;}	.st1{fill:#1D1D1B;stroke:#1D1D1B;stroke-width:0.5;stroke-miterlimit:10;}</style><title>Font_Dobruvane_OK_curves</title><path class="st0" d="M44.6,65.4c0,0.1,0,0.2,0,0.3c0,0.1,0,0.2,0,0.3l-0.1,0.3v0.3c0,0,0,0.1,0,0.1c0,0,0,0.1,0,0.1v0.1  c0,0.1-0.1,0.2-0.3,0.2c0,0-0.1,0-0.2-0.1c-0.6-0.6-1.4-0.9-2.2-0.9c-0.9,0-1.8,0.3-2.6,0.8c-0.9,0.7-1.8,1.4-2.6,2.2  c-0.7,0.8-1.5,1.6-2.1,2.4c-0.5,0.7-1,1.5-1.5,2.2s-1,1.6-1.5,2.4c1.6,1.2,3.2,2.5,4.6,3.9c1.4,1.4,2.6,2.8,3.7,4.4  c2.5,3.3,3.8,7.3,3.9,11.5v1.1c-0.1,2.2-0.8,4.2-2.1,6c-1.3,1.8-3.1,3.2-5.1,4.1c-1.9,0.9-3.9,1.6-6,2.1c-2,0.5-4.1,0.7-6.2,0.7  c-0.5,0-0.9,0-1.4,0c-0.5,0-0.9,0-1.4-0.1c-1.8-0.2-3.6-0.5-5.4-1c-1.7-0.5-3.4-1-5.1-1.7c-1.2-0.5-2.4-1-3.5-1.6s-2.1-1-3-1.5  c-0.4-0.2-0.6-0.3-0.6-0.4s0.2-0.4,0.5-0.7c0.1-0.1,0.2-0.2,0.3-0.2l0.3-0.2l-1-0.1c-0.3,0-0.7-0.1-1-0.2c-0.5-0.1-1.1-0.2-1.6-0.3  c-0.5-0.1-0.9-0.3-1.3-0.4c-0.2,0-0.3-0.1-0.3-0.3c0-0.1,0.1-0.1,0.3-0.1h0.2c0.8,0.2,1.6,0.4,2.4,0.5c0.9,0.1,1.7,0.2,2.6,0.2h0.4  l0.6-0.4c0.2-0.1,0.4-0.1,0.6-0.1c0.4,0,0.7,0.1,1,0.3l0.2,0.1c1.2-0.1,2.3-0.4,3.3-1c1.6-0.9,3-2.2,4.1-3.6c0.9-1.1,2-2.5,3.2-4.1  s2.4-3.3,3.6-5.1c1.2-1.8,2.4-3.6,3.6-5.3s2.2-3.3,3-4.7l0.6-0.8c0.2-0.3,0.4-0.6,0.6-0.9c-0.1-0.1-0.2-0.2-0.4-0.2  c-0.1-0.1-0.2-0.1-0.3-0.2c-1.4-0.9-2.9-1.8-4.4-2.5c-1.4-0.7-3-1.2-4.5-1.5c-0.7-0.1-1.4-0.2-2.1-0.3c-0.7-0.1-1.3-0.1-2-0.1  c-2.3,0-4.6,0.5-6.6,1.5c-2.1,1.1-3.7,2.8-4.8,4.9c-0.2,0.3-0.3,0.6-0.4,0.9c-0.1,0.3-0.2,0.6-0.2,0.9c0,0.2-0.1,0.3-0.2,0.3  c-0.1,0-0.2-0.1-0.3-0.2c-0.3-0.3-0.5-0.5-0.7-0.8l-0.5-0.6c-0.2-0.2-0.3-0.4-0.3-0.6c0,0,0-0.1,0-0.2c0-0.1,0-0.1,0-0.2  c0.2-0.9,0.6-1.8,1.1-2.6c0.5-0.9,1.2-1.7,2-2.4c0.7-0.6,1.5-1.1,2.4-1.5c0.9-0.4,1.9-0.7,2.8-0.8c0.6-0.1,1.1-0.2,1.6-0.2  s1-0.1,1.5-0.1c0.8,0,1.6,0,2.4,0.1c0.8,0.1,1.5,0.2,2.3,0.4c2.1,0.5,4.1,1.1,6,2c1.8,0.8,3.6,1.7,5.3,2.8l0.3,0.2l0.3,0.2  c0.6-0.8,1.1-1.5,1.7-2.2c0.6-0.7,1.1-1.4,1.6-1.9c1.1-1.2,2.2-2.5,3.4-3.9c1.1-1.3,2.2-2.5,3.6-3.6c0.5-0.4,1.1-0.6,1.7-0.6  c1.1,0,2,0.8,2.1,1.9C44.5,65.2,44.5,65.3,44.6,65.4L44.6,65.4z M40.3,96.1c0-0.5,0-0.9,0-1.3c0-0.4-0.1-0.9-0.1-1.4  c-0.3-3.3-1.4-6.4-3-9.3c-1.6-2.8-3.7-5.3-6.2-7.3l-1.3,2l-1.2,1.9c-1.8,2.8-3.5,5.6-5.3,8.2c-1.7,2.6-3.5,5-5.5,7.4  c-1.1,1.3-2.3,2.5-3.7,3.5c-1.2,0.8-2.5,1.4-3.8,2c-0.2,0.1-0.4,0.1-0.6,0.2c-0.2,0.1-0.4,0.1-0.6,0.2c1,0.6,2,1.2,3.1,1.7  c1,0.5,2,1,3,1.5c1.7,0.7,3.5,1.4,5.3,1.9c1.9,0.5,3.8,0.9,5.7,1.1c0.4,0,0.7,0.1,1.1,0.1h1c2.1,0,4.2-0.4,6.1-1.2  c1.8-0.8,3.3-2.3,4.3-4.1c0.6-1.1,1-2.2,1.2-3.4C40.1,98.6,40.3,97.4,40.3,96.1z"></path><path class="st0" d="M65.6,95.5c-1.1,0.8-2.2,1.6-3.3,2.3c-1.2,0.7-2.4,1.2-3.7,1.7c-1,0.5-2.3,0.5-3.3,0.1  c-0.3,0.5-0.5,0.9-0.8,1.4c-0.3,0.5-0.6,0.9-0.9,1.3c-0.8,1-1.8,1.9-2.9,2.6c-0.7,0.5-1.6,0.7-2.5,0.5c-0.7-0.2-1.3-0.8-1.5-1.5  c-0.2-1.1-0.1-2.3,0.3-3.3c0.3-0.8,0.7-1.6,1.2-2.4c0.5-0.8,1.2-1.6,1.8-2.3c0.7-0.7,1.4-1.4,2.2-2c0.7-0.5,1.4-1,2.2-1.4  c0.5-0.2,1.1-0.4,1.6-0.4c0.1-0.1,0.1-0.1,0.2-0.2c0.1,0,0.1-0.1,0.2-0.1c0.2-0.1,0.4-0.2,0.7-0.2l0.8-0.1c0.2,0,0.3,0.1,0.3,0.3  c0,0.2,0,0.5-0.1,0.7c-0.3,0.7-0.5,1.3-0.8,2s-0.5,1.3-0.6,1.9c-0.3,0.7-0.1,1.5,0.4,2.1c0.6,0.5,1.4,0.6,2.1,0.3  c1.1-0.4,2.2-0.8,3.2-1.4c1.1-0.6,2.1-1.3,2.9-2.1c0.2-0.2,0.3-0.2,0.4-0.1C65.8,95.3,65.7,95.4,65.6,95.5z M55.8,92.8  c-0.2-0.3-0.7-0.3-1.3,0c-0.7,0.4-1.3,1-1.8,1.7c-0.5,0.6-0.9,1.2-1.3,1.8c-0.4,0.7-0.8,1.3-1.1,2s-0.6,1.3-0.9,2  c-0.2,0.6-0.4,1.1-0.6,1.7c-0.3,1.5-0.2,2.3,0.5,2.6c0.7,0.2,1.6-0.3,2.7-1.6c1-1.2,1.9-2.4,2.5-3.8c-0.5-0.9-0.5-2,0.1-2.8  c0.2-0.5,0.4-1.1,0.6-1.6C55.5,94,55.7,93.4,55.8,92.8z"></path><path class="st0" d="M99.4,66.2c0,1-0.2,1.9-0.6,2.8c-0.3,0.9-0.6,1.8-1,2.6c-0.1,0.1-0.2,0.2-0.3,0.2c-0.1,0-0.2-0.1-0.2-0.1  c0,0,0,0,0,0c0,0.1,0.1-0.1,0.3-0.7c0.2-0.6,0.3-1.2,0.3-1.8c0.1-2-1-4-2.8-4.9c-1.4-0.7-3.8-1.1-7.2-1.2c-2.5,0-5,0.3-7.5,0.9  c-2,0.4-4,1.2-5.7,2.4c-2,1.5-3.1,3.8-3,6.2c0.2,2.7,0.7,5.3,1.6,7.9c0.9,2.5,1.4,5.2,1.6,7.9c0,2.1-0.5,4.1-1.4,5.9  c-1.3,3.4-3.6,6.4-6.6,8.5c-1.9,1.3-3.5,2-4.5,2c-0.3,0-0.5,0-0.8-0.1c-0.4,0-0.6-0.5-0.6-1.3v-0.2c0.2-1.6,0.7-3.2,1.6-4.6  c0.9-1.7,2.2-3.3,3.7-4.5c2.1-1.8,3.5-2.7,4.3-2.7c0.1,0,0.2,0.1,0.3,0.2v0.1c0,0.1-0.1,0.2-0.2,0.3c-0.8,0.2-1.5,0.6-2.1,1.1  c-2.7,2.4-4.5,5.7-5,9.3v0.4c0,0.5,0.2,0.7,0.5,0.7c0.2,0,0.4-0.1,0.6-0.1c1.6-0.8,3.1-2,4.3-3.4c2.6-3.1,3.9-6.3,3.9-9.5  c-0.1-2.8-0.7-5.6-1.6-8.3c-0.9-2.6-1.4-5.4-1.6-8.1c0-2.3,0.9-4.4,2.5-6c2-2.2,4.5-3.8,7.3-4.7c3.9-1.2,8-1.8,12.1-1.8  c1.7,0,3.3,0.3,4.9,1C98.2,63.5,99.2,64.7,99.4,66.2z"></path><path class="st0" d="M96.5,96.5c-0.6,0.8-1.2,1.7-1.9,2.6c-0.7,0.9-1.5,1.7-2.3,2.5c-0.8,0.8-1.6,1.5-2.6,2.1  c-0.9,0.6-1.8,1.1-2.9,1.4c-1.6,0.5-3.2,0.6-4.9,0.3c-0.8,0-1.4-0.5-1.7-1.2c-0.2-0.8-0.1-1.7,0.4-2.5c0.3-0.5,0.6-1.2,1.1-2  c0.5-0.8,1-1.7,1.5-2.6c0.5-0.8,1-1.6,1.4-2.3s0.6-1.1,0.7-1.2c0.2-0.4,0.1-0.4-0.1-0.2c-0.5,0.4-1,0.9-1.6,1.4s-1.1,1.1-1.7,1.6  c-0.6,0.6-1.1,1.2-1.6,1.7c-0.5,0.6-1,1.1-1.4,1.6s-0.9,1.1-1.3,1.6c-0.4,0.5-0.7,1-1.1,1.4s-0.7,1-1,1.5l-1.2,1.8  c-1.9,3.1-3.8,6.2-5.5,9.1s-3.4,6.1-5.3,9.6c-0.5,1-1.1,2.1-1.6,3.2c-0.5,1.1-1,2.2-1.4,3.3c-0.4,0.9-0.7,1.9-1,2.9  c-0.2,0.7-0.3,1.4-0.4,2.1c0,0.5,0.1,0.9,0.3,1.3c0.1,0.2,0.1,0.4-0.1,0.4s-0.4,0-0.6-0.4c-0.1-0.2-0.2-0.3-0.3-0.4  c-0.1-0.1-0.2-0.3-0.3-0.4c-0.3-0.3-0.5-0.6-0.9-0.9c-0.5-0.3-0.5-0.9-0.1-1.8c0.3-0.7,0.6-1.3,0.9-1.9c0.4-0.7,0.8-1.5,1.2-2.3  l1.3-2.3l1.1-2c1.8-2.9,3.4-5.8,5-8.4c1.6-2.7,3-5.1,4.2-7.3l1.8-3.4c0.7-1.2,1.4-2.5,2-3.8c0.6-1.3,1.3-2.5,1.9-3.7  c0.6-1.2,1-2.2,1.4-3.1s0.4-1.5,0-1.8c-0.4-0.4-0.9-0.4-1.7-0.1c-0.4,0.1-0.7,0.3-1,0.6c-0.4,0.3-0.7,0.5-0.9,0.7s-0.3,0.2-0.4,0  s-0.1-0.3,0.1-0.5c0.4-0.4,0.9-0.7,1.4-0.9c0.6-0.3,1.3-0.6,2-0.7c0.7-0.2,1.5-0.1,2.2,0.3c0.6,0.5,0.8,1.3,0.5,2  c-0.1,0.5-0.3,1-0.5,1.5c-0.2,0.6-0.5,1.1-0.8,1.7C78.7,99,78.7,99,78.7,99s0.1-0.1,0.1-0.1c1.1-1.3,2.4-2.7,3.9-4.1  c1.4-1.4,2.8-2.7,4.1-3.9c0.3-0.2,0.6-0.5,0.9-0.7c0.3-0.2,0.6-0.4,0.8-0.5c0.4-0.3,0.7-0.3,0.8-0.1c0.1,0.2,0,0.4-0.3,0.8  c-0.3,0.4-0.8,1-1.2,1.7s-1,1.6-1.7,2.7c-0.6,1.1-1.2,2.2-1.7,3.3c-0.5,1-0.9,2.1-1.2,3.2c-0.8,3,0.5,4.1,3.7,3.3  c2-0.6,3.8-1.7,5.2-3.2c1.6-1.6,3-3.4,4.2-5.2c0.2-0.3,0.3-0.3,0.5-0.2C96.7,96.1,96.7,96.3,96.5,96.5z"></path><path class="st0" d="M109.2,86.8c0.2,0.7,0.1,1.4-0.2,2.1c-1.2,2-2.5,4-3.9,5.9c-1.5,2-3.1,3.9-4.6,5.8c-2.5,3-4.9,5.9-7,8.6  c-2.1,2.7-4,5.4-5.7,7.9c-0.8,1.2-1.6,2.5-2.3,3.8c-0.7,1.3-1.4,2.6-2,4c-0.6,1.3-1,2.5-1.4,3.9c-0.3,1.2-0.5,2.4-0.5,3.7  c-0.2,1.4,0.3,2.8,1.3,3.9c1.1,0.9,2.6,1.4,4,1.3c1,0,2-0.1,3-0.3c1.1-0.3,2.3-0.6,3.5-1l3.6-1.1c1.2-0.4,2.2-0.7,3.1-0.9  c1.1-0.3,2.2-0.4,3.3-0.4c0.8,0,1.5,0.5,1.8,1.3c0.1,0.3,0.1,0.7,0,1c-0.1,0.4-0.2,0.7-0.3,0.9c-0.1,0.2-0.3,0.4-0.4,0.4  c-0.1,0-0.1-0.2-0.1-0.5c0.1-0.3,0.1-0.7,0.1-1c0-0.3-0.2-0.5-0.4-0.6c-0.5-0.2-1.1-0.2-1.7-0.2c-0.6,0.1-1.4,0.2-2.2,0.3  c-0.8,0.1-1.5,0.3-2.4,0.5c-0.9,0.2-1.8,0.4-2.8,0.7s-2,0.5-3,0.7c-1,0.2-2,0.4-2.8,0.5c-3.7,0.5-6.5-0.1-8.6-1.6  c-1.1-0.7-1.7-1.8-1.8-3.1c-0.1-1.4,0.2-2.9,0.8-4.2c0.9-2,1.9-3.9,3.1-5.8c1.3-2.1,2.7-4.2,4.2-6.3s3-4.2,4.6-6.2s3-3.8,4.4-5.5  l0.6-0.8l0.6-0.8c-0.2,0.2-0.5,0.3-0.8,0.4c-0.3,0.1-0.6,0.2-0.9,0.3c-0.4,0.2-0.9,0.1-1.3-0.1c-0.3-0.3-0.4-0.8-0.3-1.2  c0.1-0.5,0.2-1,0.4-1.7c0.2-0.6,0.4-1.2,0.6-1.7c0.4-1.1,0.8-2.3,1.2-3.5c0.3-1,0.6-2,0.7-3.1c0.1-0.9-0.4-1.2-1.6-0.9  c-1,0.3-2,0.7-2.9,1.3c-0.2,0.1-0.4,0-0.5-0.1c-0.1-0.2,0-0.3,0.2-0.4c1.1-0.5,2.1-0.9,3.2-1.3c1.1-0.4,2.2-0.7,3.4-1  c0.6-0.1,1,0,1.1,0.3c0.1,0.5,0.1,1-0.2,1.5l-1.2,3c-0.4,1.1-0.8,2.1-1,2.9c-0.2,0.7-0.4,1.3-0.6,2c-0.2,0.6-0.2,1.1-0.2,1.7  c0,0.4,0.2,0.7,0.5,0.7c0.4,0.1,0.7,0,1-0.3c0.1,0,0.1-0.1,0.2-0.1c2.4-2.9,4.6-6,6.6-9.2c1.5-2.1,2.5-4.5,2.9-7.1  c0.1-1.2-0.3-2.4-1.1-3.2c-0.2-0.2-0.2-0.3-0.1-0.4c0.1-0.1,0.3-0.1,0.5,0.1c0.5,0.6,1,1.3,1.4,2C108.5,85.5,108.9,86.1,109.2,86.8z  "></path><path class="st0" d="M139.2,65.7c0.2,0.7,0.3,1.5,0.3,2.2c-0.1,0.7-0.2,1.4-0.5,2.1c-0.3,0.7-0.7,1.4-1.2,2  c-0.6,0.8-1.2,1.5-1.9,2.2c-0.7,0.7-1.5,1.5-2.4,2.4c-0.9,0.9-1.9,1.8-2.8,2.8l-2.9,2.7c-1,0.9-1.8,1.7-2.6,2.4  c-0.8,0.7-1.5,1.3-2.4,2.1c-0.8,0.8-1.7,1.5-2.5,2.3c-0.8,0.8-1.7,1.5-2.6,2.1c-0.8,0.6-1.7,1.2-2.6,1.6l-0.3,0.1  c-0.1,0.1-0.3,0.1-0.4,0.3c-0.1,0.1-0.2,0.2-0.2,0.4c-0.3,0.5-0.5,1-0.8,1.6s-0.6,1.2-0.8,1.8c-0.3,0.6-0.5,1.2-0.8,1.8  c-0.3,0.6-0.5,1.1-0.6,1.5c-0.2,0.6-0.4,1.3-0.5,2c-0.1,0.6-0.1,1.2,0.1,1.8c0.1,0.2,0.3,0.4,0.5,0.4c0.3,0,0.6,0,0.8-0.2  c0.7-0.4,1.3-0.9,1.8-1.4c0.9-0.9,1.7-1.9,2.2-3.1c0.2-0.4,0.3-0.7,0.4-1.1c0.1-0.3,0.2-0.7,0.3-1c0.1-0.3,0.1-0.6,0-0.9  c-0.1-0.7-0.2-1.3-0.3-2c-0.1-0.7-0.1-1.5-0.1-2.2c0-0.5,0.2-0.8,0.6-0.8c0.2,0,0.4,0,0.6,0c0.2,0,0.4,0,0.5-0.2  c0.1-0.1,0.3-0.1,0.4,0c0,0,0,0,0,0.1c0.1,0.2,0.2,0.4,0.2,0.7c0,1,0,2,0.1,3c0.1,0.8,0.3,1.7,0.5,2.5c0.2,0.6,0.6,1,1.2,1.1  c0.6,0.1,1.2,0.1,1.8-0.2c1-0.5,1.9-1,2.7-1.6c0.9-0.7,1.8-1.5,2.6-2.3c0.2-0.2,0.4-0.3,0.5-0.2c0.1,0.1,0.1,0.2-0.1,0.4  c-1,1.1-2.1,2-3.3,2.8c-1.2,0.9-2.5,1.6-3.9,2.2c-0.6,0.2-1.1,0.3-1.7,0.4c-0.6,0-0.9-0.1-1.1-0.4c-0.2-0.3-0.4-0.5-0.6-0.5  s-0.3,0.1-0.4,0.3c-0.5,1-1.2,2-2,2.8c-0.6,0.8-1.4,1.4-2.2,2c-0.9,0.6-1.8,1.1-2.7,1.5c-0.8,0.5-1.8,0.3-2.4-0.4  c-0.3-0.5-0.4-1.1-0.2-1.6c0.3-1.5,0.8-2.9,1.4-4.3c0.7-1.6,1.5-3,2.2-4.4c0.2-0.3,0.4-0.6,0.6-0.9s0.4-0.6,0.6-1c1-1.6,2-3.3,3.2-5  c1.2-1.7,2.3-3.5,3.5-5.3c0.6-0.9,1.3-1.8,2.1-2.9s1.6-2.1,2.5-3.2c0.9-1.1,1.8-2.2,2.7-3.2s1.8-2.1,2.7-3.1  c0.7-0.7,1.5-1.5,2.4-2.4c0.8-0.8,1.7-1.5,2.6-2.2c0.5-0.4,1-0.7,1.5-1c0.5-0.3,1.1-0.5,1.7-0.5c0.3,0,0.7,0.1,0.9,0.3  C138.9,64.9,139.1,65.3,139.2,65.7z M136.7,68.9c-0.1-2.1-1-2.7-2.9-1.6c-0.9,0.5-1.8,1.2-2.5,1.9c-0.9,0.9-1.7,1.7-2.6,2.6  c-1,1.1-2.2,2.5-3.3,4s-2.4,3.1-3.5,4.8c-1.1,1.7-2.3,3.5-3.4,5.3c-1.1,1.8-2.1,3.6-3.1,5.5c-0.1,0.1-0.1,0.2,0,0.2  c0.1,0,0.2,0,0.3-0.1c1.4-1,3-2.3,4.8-3.7s3.4-2.9,5.1-4.4c1.7-1.5,3.2-3.1,4.7-4.6c1.5-1.5,2.7-2.8,3.7-3.9c0.8-0.9,1.5-1.9,2-3  C136.5,71,136.7,69.9,136.7,68.9z"></path><path class="st0" d="M143.6,96.9c-0.6,0.8-1.2,1.5-1.9,2.4c-0.7,0.8-1.4,1.6-2.2,2.3c-0.8,0.7-1.6,1.4-2.4,2  c-0.8,0.6-1.6,1.1-2.4,1.6c-2.5,1.3-4.1,1.6-4.8,0.7c-0.7-0.8-0.6-2.6,0.2-5.3c0.2-0.7,0.5-1.4,0.8-2.1c0.3-0.7,0.6-1.5,1.1-2.4  c-1.1,1.5-2.2,2.9-3.4,4.2c-1,1.2-2.2,2.2-3.6,3.1c-1.2,0.8-2.1,0.8-2.6,0.3s-0.4-1.5,0.3-2.7c0.9-1.5,1.9-2.9,3.1-4.2  c1.1-1.2,2.4-2.2,3.7-3.2c0.6-0.5,1.3-0.9,2-1.2c0.7-0.3,1.4-0.5,2.1-0.5c0.3-0.6,0.6-1.2,0.9-1.8c0.3-0.5,0.6-1,1-1.5  c0.1-0.2,0.3-0.2,0.4-0.3c0.2,0,0.3,0.1,0.3,0.4c0,0.1,0,0.3,0.1,0.4l0.1,0.3l0.1,0.3c0.1,0.2,0.1,0.4,0,0.6  c-1.2,1.9-2.3,3.8-3.1,5.8c-0.8,1.8-1.3,3.6-1.7,5.4c-0.3,1.4-0.1,2.4,0.4,2.9s1.5,0.5,2.8-0.1c0.8-0.3,1.5-0.8,2.1-1.3  c0.8-0.6,1.5-1.2,2.2-1.9c0.7-0.7,1.4-1.4,2.1-2.2c0.6-0.7,1.2-1.5,1.8-2.3c0.1-0.2,0.3-0.3,0.4-0.2  C143.7,96.6,143.8,96.7,143.6,96.9z M133.4,92.5c-0.7,0-1.3,0.2-1.9,0.5c-0.7,0.4-1.4,0.9-2,1.4c-0.4,0.3-0.8,0.7-1.1,1.1  c-0.4,0.5-0.9,1-1.2,1.5c-0.4,0.6-0.8,1.1-1.1,1.7c-0.3,0.5-0.6,1.1-0.8,1.7c-0.3,0.8-0.3,1.4,0,1.6c0.3,0.2,0.8,0,1.4-0.6  c1.3-1.2,2.5-2.5,3.6-3.9C131.4,96,132.5,94.3,133.4,92.5z"></path><path class="st0" d="M148.7,98.8c-1.2-0.1-2.2-0.2-3-0.3s-1.5-0.2-2.1-0.2c-0.6,1.1-1.2,2.2-1.9,3.4c-0.7,1.2-1.3,2.3-1.8,3.3  c-0.3,0.5-0.6,0.4-0.8-0.1c-0.2-0.3-0.3-0.7-0.3-1.1c0-0.4,0-0.8,0.3-1.1c0.4-0.8,1-1.8,1.7-3l1.1-2l1.3-2.4  c0.5-0.9,0.9-1.7,1.4-2.4l1.2-1.9c0.3-0.4,0.7-0.4,1.1-0.1c0.3,0.2,0.4,0.4,0.4,0.6c0,0.2-0.1,0.4-0.2,0.6c-0.3,0.6-0.7,1.3-1.1,2.1  c-0.4,0.8-1,2-2,3.6c1.6,0.3,3.3,0.4,4.9,0.4c0.4-0.6,0.7-1.3,1.1-1.9l1.5-2.9c0.5-1.1,1.3-2,2.2-2.8c0.3-0.2,0.7-0.1,1,0.2  c0.2,0.4,0.1,0.8-0.2,1.1c-1.1,1.6-2.1,3.3-3.1,5.1c-0.8,1.5-1.6,3-2.1,4.6c-0.4,1.1-0.4,1.9,0.2,2.4c0.5,0.5,1.5,0.4,2.8-0.3  c1.5-0.8,2.8-1.7,4.2-2.7c1.3-1,2.5-2.1,3.7-3.3c0.2-0.2,0.3-0.2,0.4-0.1s0.1,0.3-0.1,0.5c-1.2,1.2-2.4,2.3-3.8,3.3  c-1.3,1-2.6,1.9-4.1,2.6c-2.8,1.4-4.7,1.8-5.6,1.2c-1-0.7-0.7-2.3,0.9-5c0.2-0.3,0.3-0.6,0.5-0.8C148.4,99.3,148.5,99,148.7,98.8z"></path><path class="st0" d="M173.9,97.9c-0.7,1.1-1.5,2.1-2.5,3c-0.9,0.9-2,1.6-3.1,2.3c-1,0.6-2.1,1.1-3.2,1.5c-0.9,0.3-1.9,0.6-2.9,0.8  c-2.1,0.5-3.6,0.3-4.6-0.5c-1-0.8-1.4-2.1-1.1-3.4c0.1-0.9,0.4-1.7,0.9-2.4c0.5-1,1.1-1.9,1.9-2.8c0.8-0.9,1.6-1.8,2.5-2.6  c0.8-0.8,1.8-1.4,2.8-2c0.8-0.5,1.7-0.7,2.6-0.6c0.6,0,1,0.4,1,1c0,0,0,0.1,0,0.1c0,0.5-0.2,1.1-0.6,1.5c-1,1.5-2.3,2.8-3.8,3.8  c-1.6,1.2-3.2,2.2-4.8,3.2c-0.4,1.1,0,2.3,0.9,3c0.8,0.5,1.7,0.7,2.6,0.7c1.2,0,2.4-0.3,3.6-0.8c1.4-0.6,2.7-1.4,3.9-2.3  c1.4-1.1,2.6-2.4,3.6-3.9c0.2-0.2,0.3-0.2,0.3-0.1C174,97.6,174,97.8,173.9,97.9z M166.4,93.5c0.5-0.8,0.5-1.3,0.2-1.5  c-0.3-0.3-0.9-0.2-1.7,0.3c-1.3,0.9-2.5,2-3.4,3.3c-1,1.4-1.8,2.9-2.3,4.6C162.1,98.6,164.6,96.3,166.4,93.5z"></path><path class="st1" d="M123,129.6c-1.7,0.1-3.1-1.1-3.2-2.8c0-0.1,0-0.2,0-0.2v-2.7c0-1.7,1.3-3,3-3c0.1,0,0.2,0,0.2,0  c0.9,0,1.8,0.3,2.6,0.9c0,0,0,0.1,0,0.1c0,0,0,0,0,0l-0.1,0.2c0,0-0.1,0.1-0.1,0c-0.7-0.5-1.5-0.8-2.4-0.8c-1.4-0.1-2.6,0.9-2.7,2.2  c0,0.1,0,0.2,0,0.3v2.7c0,1.4,1.1,2.5,2.4,2.5c0.1,0,0.2,0,0.3,0c0.9,0,1.8-0.3,2.6-0.9c0,0,0.1-0.1,0.1,0c0,0,0,0,0,0l0.2,0.2  c0,0,0,0.1,0,0.1c0,0,0,0,0,0C125.1,129.2,124.1,129.6,123,129.6z"></path><path class="st1" d="M135.1,117.8h3.6c0.1,0,0.1,0,0.1,0.1v11.4c0,0,0,0.1-0.1,0.1c0,0,0,0,0,0h-0.3c-0.1,0-0.1,0-0.1-0.1v-4.5h-3  l-3.7,4.6c0,0-0.1,0.1-0.1,0.1H131c-0.1,0-0.1-0.1-0.1-0.1l3.7-4.5c-2.2-0.1-3.5-1.3-3.5-3.5S132.6,117.8,135.1,117.8z M138.3,124.3  v-5.9h-3.2c-2.2,0-3.4,1.1-3.4,3s1.2,3,3.4,3L138.3,124.3z"></path><path class="st1" d="M144.6,129.6c-1.7,0.1-3.1-1.1-3.2-2.8c0-0.1,0-0.2,0-0.2v-2.7c0-1.7,1.3-3,3-3c0.1,0,0.2,0,0.2,0  c0.9,0,1.9,0.3,2.6,0.9c0.1,0,0.1,0.1,0,0.2l-0.1,0.2c-0.1,0-0.1,0.1-0.1,0c-0.7-0.5-1.5-0.8-2.4-0.8c-1.4-0.1-2.6,0.9-2.7,2.2  c0,0.1,0,0.2,0,0.3v2.7c0,1.4,1.1,2.5,2.4,2.5c0.1,0,0.2,0,0.3,0c0.9,0,1.8-0.3,2.6-0.9c0.1,0,0.1,0,0.1,0l0.2,0.2c0,0,0,0.1,0,0.1  c0,0,0,0,0,0C146.6,129.2,145.6,129.6,144.6,129.6z"></path><path class="st1" d="M149.3,129.4c-0.1,0-0.1,0-0.1-0.1c0,0,0,0,0,0v-8.1c0-0.1,0-0.1,0.1-0.1c0,0,0,0,0,0h0.4c0.1,0,0.1,0,0.1,0.1  l3.4,6l3.4-6c0,0,0.1-0.1,0.1-0.1h0.4c0.1,0,0.1,0,0.1,0.1v8.1c0,0.1,0,0.1-0.1,0.1h-0.3c0,0-0.1,0-0.1-0.1c0,0,0,0,0,0V122  l-3.3,5.7c0,0.1-0.1,0.1-0.2,0.1c0,0,0,0,0,0H153c0,0-0.1,0-0.1-0.1l-3.3-5.7v7.4c0,0,0,0.1-0.1,0.1c0,0,0,0,0,0L149.3,129.4z"></path><path class="st1" d="M159.8,129.4c-0.1,0-0.1,0-0.1-0.1c0,0,0,0,0,0v-8.1c0-0.1,0-0.1,0.1-0.1c0,0,0,0,0,0h0.3c0.1,0,0.1,0,0.1,0.1  v7.5l5.4-7.5c0,0,0.1-0.1,0.1-0.1h0.4c0.1,0,0.1,0,0.1,0.1v8.1c0,0.1,0,0.1-0.1,0.1h-0.3c-0.1,0-0.1,0-0.1-0.1v-7.5l0,0  c-0.3,0.4-0.7,1-5.4,7.5c0,0-0.1,0.1-0.1,0.1L159.8,129.4z"></path><path class="st1" d="M168.9,129.4C168.8,129.4,168.8,129.4,168.9,129.4l-0.1-8.2c0-0.1,0-0.1,0.1-0.1h0.3c0.1,0,0.1,0,0.1,0.1v3.7  h5.2v-3.7c0-0.1,0-0.1,0.1-0.1h0.3c0.1,0,0.1,0,0.1,0.1c0,0,0,0,0,0v8.1c0,0.1,0,0.1-0.1,0.1c0,0,0,0,0,0h-0.3c-0.1,0-0.1,0-0.1-0.1  v-4h-5.2v4c0,0,0,0.1-0.1,0.1c0,0,0,0,0,0H168.9z"></path><path class="st1" d="M180.2,120.9c1.5-0.2,2.8,0.9,3,2.4c0,0.2,0,0.4,0,0.6v5c0,0.1,0,0.1-0.1,0.1c-0.9,0.4-1.9,0.6-2.9,0.6  c-1.9,0-3.3-1-3.3-2.6c0-1.6,1.2-2.5,3.3-2.5c0.8,0,1.7,0.1,2.5,0.3v-0.8c0.2-1.2-0.6-2.3-1.9-2.5c-0.2,0-0.4,0-0.6,0  c-0.9,0-1.8,0.2-2.6,0.7c0,0-0.1,0-0.1,0l-0.1-0.2c0,0,0-0.1,0-0.1C178.2,121.2,179.2,120.9,180.2,120.9z M180.2,129.1  c0.9,0,1.7-0.2,2.5-0.5v-3.4c-0.8-0.2-1.7-0.3-2.5-0.3c-1.8,0-2.8,0.8-2.8,2.1S178.6,129.1,180.2,129.1L180.2,129.1z"></path><path class="st1" d="M196.1,117.8c0.1,0,0.1,0,0.1,0.1v0.3c0,0.1,0,0.1-0.1,0.1c0,0,0,0,0,0h-3.8v11c0,0.1,0,0.1-0.1,0.1l0,0h-0.3  c-0.1,0-0.1,0-0.1-0.1c0,0,0,0,0,0v-11H188c0,0-0.1,0-0.1-0.1c0,0,0,0,0,0v-0.3c0-0.1,0-0.1,0.1-0.1L196.1,117.8z"></path><path class="st1" d="M198.8,120.9c1.5-0.2,2.8,0.9,3,2.4c0,0.2,0,0.4,0,0.6v5c0,0,0,0.1-0.1,0.1c-0.9,0.4-1.9,0.6-2.9,0.6  c-1.9,0-3.3-1-3.3-2.6c0-1.6,1.2-2.5,3.3-2.5c0.9,0,1.7,0.1,2.5,0.3V124c0.2-1.2-0.7-2.3-1.9-2.5c-0.2,0-0.4,0-0.6,0  c-0.9,0-1.8,0.2-2.6,0.7c0,0-0.1,0-0.1,0l-0.1-0.2c0,0,0-0.1,0-0.1C196.8,121.2,197.8,120.9,198.8,120.9z M198.8,129.1  c0.9,0,1.7-0.2,2.5-0.5v-3.4c-0.8-0.2-1.7-0.3-2.5-0.3c-1.8,0-2.8,0.8-2.8,2.1S197.1,129.1,198.8,129.1L198.8,129.1z"></path><path class="st1" d="M203.2,129.5c-0.1,0-0.1,0-0.1-0.1v-0.3c0-0.1,0-0.1,0.1-0.1c0.9,0,1.4-0.5,1.6-2.7c0.1-1.1,0.3-2.7,0.4-5.1  c0-0.1,0-0.1,0.1-0.1c0,0,0,0,0,0h5.1c0.1,0,0.1,0,0.1,0.1v8.1c0,0,0,0.1-0.1,0.1c0,0,0,0,0,0h-0.3c-0.1,0-0.1,0-0.1-0.1  c0,0,0,0,0,0v-7.8h-4.3c-0.1,2.2-0.3,3.8-0.4,4.9C205,128.8,204.4,129.4,203.2,129.5z"></path></svg>
