<?xml version="1.0" encoding="UTF-8" standalone="no"?>
<!DOCTYPE svg PUBLIC "-//W3C//DTD SVG 20010904//EN"
              "http://www.w3.org/TR/2001/REC-SVG-20010904/DTD/svg10.dtd">
<?xml-stylesheet type="text/css" href="/assets/css/dobruvane.css"?>
<svg xmlns="http://www.w3.org/2000/svg"
     width="2.35556in" height="0.777778in"
     viewBox="0 0 212 70">
  <path id="dobruvame-logo-svg"
        fill="black" stroke="black" stroke-width="1"
        d="M 210.70,68.47
           C 209.40,68.47 208.60,67.67 208.60,65.77
             208.60,65.77 208.60,56.76 208.60,56.76
             208.60,56.66 208.60,56.66 208.70,56.66
             208.70,56.66 209.00,56.66 209.00,56.66
             209.00,56.66 209.10,56.66 209.10,56.76
             209.10,56.76 209.10,56.76 209.10,56.76
             209.10,56.76 209.10,65.77 209.10,65.77
             209.10,67.27 209.70,67.87 210.70,67.87
             211.00,67.87 211.30,67.87 211.60,67.77
             211.70,67.77 211.70,67.77 211.70,67.87
             211.70,67.87 211.70,68.17 211.70,68.17
             211.70,68.27 211.70,68.27 211.60,68.27
             211.40,68.47 211.00,68.47 210.70,68.47 Z
           M 203.30,59.86
           C 204.80,59.66 206.10,60.76 206.30,62.26
             206.30,62.46 206.30,62.66 206.30,62.86
             206.30,62.86 206.30,67.87 206.30,67.87
             206.30,67.97 206.30,67.97 206.20,67.97
             205.30,68.37 204.30,68.57 203.30,68.57
             201.40,68.57 200.00,67.57 200.00,65.97
             200.00,64.37 201.20,63.46 203.30,63.46
             204.10,63.46 205.00,63.56 205.80,63.76
             205.80,63.76 205.80,62.86 205.80,62.86
             206.00,61.66 205.10,60.56 203.90,60.36
             203.70,60.36 203.50,60.36 203.30,60.36
             202.40,60.36 201.50,60.66 200.70,61.06
             200.70,61.06 200.60,61.06 200.60,61.06
             200.60,61.06 200.50,60.86 200.50,60.86
             200.50,60.86 200.50,60.76 200.50,60.76
             201.30,60.16 202.30,59.86 203.30,59.86 Z
           M 203.30,68.07
           C 204.20,68.07 205.00,67.87 205.80,67.57
             205.80,67.57 205.80,64.17 205.80,64.17
             205.00,63.97 204.10,63.86 203.30,63.86
             201.50,63.86 200.50,64.67 200.50,65.97
             200.50,67.27 201.60,67.97 203.30,68.07
             203.30,68.07 203.30,68.07 203.30,68.07 Z
           M 200.60,56.76
           C 200.70,56.76 200.70,56.76 200.70,56.86
             200.70,56.86 200.70,56.86 200.70,56.86
             200.70,56.86 200.70,57.16 200.70,57.16
             200.70,57.26 200.70,57.26 200.60,57.26
             200.60,57.26 196.80,57.26 196.80,57.26
             196.80,57.26 196.80,68.27 196.80,68.27
             196.80,68.27 196.80,68.37 196.70,68.37
             196.70,68.37 196.70,68.37 196.70,68.37
             196.70,68.37 196.30,68.37 196.30,68.37
             196.20,68.37 196.20,68.37 196.20,68.27
             196.20,68.27 196.20,68.27 196.20,68.27
             196.20,68.27 196.20,57.26 196.20,57.26
             196.20,57.26 192.50,57.26 192.50,57.26
             192.50,57.26 192.40,57.26 192.40,57.16
             192.40,57.16 192.40,57.16 192.40,57.16
             192.40,57.16 192.40,56.86 192.40,56.86
             192.40,56.76 192.40,56.76 192.50,56.76
             192.50,56.76 200.60,56.76 200.60,56.76 Z
           M 184.70,59.86
           C 186.20,59.66 187.50,60.76 187.70,62.26
             187.70,62.46 187.70,62.66 187.70,62.86
             187.70,62.86 187.70,67.87 187.70,67.87
             187.70,67.97 187.70,67.97 187.60,67.97
             186.70,68.37 185.70,68.57 184.70,68.57
             182.80,68.57 181.40,67.57 181.40,65.97
             181.40,64.37 182.60,63.46 184.70,63.46
             185.50,63.46 186.40,63.56 187.20,63.76
             187.20,63.76 187.20,62.86 187.20,62.86
             187.40,61.66 186.50,60.56 185.30,60.36
             185.10,60.36 184.90,60.36 184.70,60.36
             183.80,60.36 182.90,60.66 182.10,61.06
             182.10,61.06 182.00,61.06 182.00,61.06
             182.00,61.06 181.90,60.86 181.90,60.86
             181.90,60.86 181.90,60.76 181.90,60.76
             182.70,60.16 183.70,59.86 184.70,59.86 Z
           M 184.70,68.07
           C 185.60,68.07 186.40,67.87 187.20,67.57
             187.20,67.57 187.20,64.17 187.20,64.17
             186.40,63.97 185.50,63.86 184.70,63.86
             182.90,63.86 181.90,64.67 181.90,65.97
             181.90,67.27 183.10,67.97 184.70,68.07
             184.70,68.07 184.70,68.07 184.70,68.07 Z
           M 173.20,68.37
           C 173.20,68.37 173.10,68.37 173.10,68.27
             173.10,68.27 173.10,68.27 173.10,68.27
             173.10,68.27 173.10,60.56 173.10,60.56
             173.10,60.46 173.10,60.46 173.20,60.46
             174.10,60.06 175.20,59.86 176.20,59.86
             178.40,59.86 179.60,60.96 179.60,63.16
             179.60,63.16 179.60,68.27 179.60,68.27
             179.60,68.27 179.60,68.37 179.50,68.37
             179.50,68.37 179.50,68.37 179.50,68.37
             179.50,68.37 179.20,68.37 179.20,68.37
             179.10,68.37 179.10,68.37 179.10,68.27
             179.10,68.27 179.10,68.27 179.10,68.27
             179.10,68.27 179.10,63.16 179.10,63.16
             179.10,61.26 178.00,60.36 176.20,60.36
             175.30,60.36 174.50,60.56 173.70,60.86
             173.70,60.86 173.70,68.37 173.70,68.37
             173.70,68.47 173.70,68.47 173.60,68.47
             173.60,68.47 173.20,68.47 173.20,68.47
             173.20,68.47 173.20,68.37 173.20,68.37 Z
           M 170.30,58.16
           C 170.10,58.16 169.90,57.96 169.90,57.76
             169.90,57.56 170.10,57.36 170.30,57.36
             170.50,57.36 170.70,57.56 170.70,57.76
             170.70,57.76 170.70,57.76 170.70,57.76
             170.70,57.96 170.60,58.16 170.30,58.16
             170.30,58.16 170.30,58.16 170.30,58.16 Z
           M 170.10,68.37
           C 170.00,68.37 170.00,68.37 170.00,68.27
             170.00,68.27 170.00,60.06 170.00,60.06
             170.00,59.96 170.00,59.96 170.10,59.96
             170.10,59.96 170.40,59.96 170.40,59.96
             170.50,59.96 170.50,59.96 170.50,60.06
             170.50,60.06 170.50,60.06 170.50,60.06
             170.50,60.06 170.50,68.17 170.50,68.17
             170.50,68.17 170.50,68.27 170.40,68.27
             170.40,68.27 170.40,68.27 170.40,68.27
             170.40,68.27 170.10,68.27 170.10,68.27
             170.10,68.27 170.10,68.37 170.10,68.37 Z
           M 164.50,59.86
           C 166.10,59.66 167.50,60.86 167.60,62.46
             167.60,62.66 167.60,62.76 167.60,62.96
             167.60,62.96 167.60,68.27 167.60,68.27
             167.60,68.37 167.60,68.37 167.50,68.37
             167.50,68.37 167.20,68.37 167.20,68.37
             167.20,68.37 167.10,68.37 167.10,68.27
             167.10,68.27 167.10,68.27 167.10,68.27
             167.10,68.27 167.10,62.86 167.10,62.86
             167.20,61.56 166.30,60.36 165.00,60.26
             164.80,60.26 164.70,60.26 164.50,60.26
             163.70,60.26 162.90,60.46 162.20,60.96
             162.50,61.56 162.70,62.16 162.60,62.86
             162.60,62.86 162.60,68.27 162.60,68.27
             162.60,68.27 162.60,68.37 162.50,68.37
             162.50,68.37 162.50,68.37 162.50,68.37
             162.50,68.37 162.20,68.37 162.20,68.37
             162.20,68.37 162.10,68.37 162.10,68.27
             162.10,68.27 162.10,68.27 162.10,68.27
             162.10,68.27 162.10,62.86 162.10,62.86
             162.10,61.26 161.40,60.26 159.70,60.26
             158.90,60.26 158.20,60.46 157.50,60.76
             157.50,60.76 157.50,68.27 157.50,68.27
             157.50,68.37 157.50,68.37 157.40,68.37
             157.40,68.37 157.10,68.37 157.10,68.37
             157.10,68.37 157.00,68.37 157.00,68.27
             157.00,68.27 157.00,68.27 157.00,68.27
             157.00,68.27 157.00,60.56 157.00,60.56
             157.00,60.46 157.00,60.46 157.10,60.46
             157.90,60.06 158.80,59.86 159.70,59.86
             160.50,59.76 161.30,60.06 161.90,60.66
             162.70,60.16 163.60,59.86 164.50,59.86 Z
           M 152.10,68.47
           C 151.00,68.47 149.90,68.17 149.00,67.47
             149.00,67.47 149.00,67.37 149.00,67.37
             149.00,67.37 149.00,67.37 149.00,67.37
             149.00,67.37 149.20,67.07 149.20,67.07
             149.20,66.97 149.30,66.97 149.30,67.07
             150.10,67.67 151.10,68.07 152.10,68.07
             153.60,68.07 154.70,67.47 154.70,66.17
             154.70,64.87 153.30,64.57 152.10,64.27
             150.90,64.07 149.10,63.46 149.10,61.86
             149.10,60.56 150.30,59.76 152.00,59.76
             153.00,59.76 154.00,60.06 154.90,60.56
             154.90,60.56 154.90,60.66 154.90,60.66
             154.90,60.66 154.90,60.66 154.90,60.66
             154.90,60.66 154.80,60.86 154.80,60.86
             154.80,60.86 154.70,60.86 154.70,60.86
             154.70,60.86 154.70,60.86 154.70,60.86
             153.90,60.36 153.00,60.16 152.10,60.16
             150.70,60.16 149.80,60.76 149.80,61.76
             149.80,63.06 151.10,63.36 152.40,63.66
             153.90,63.97 155.40,64.37 155.40,65.97
             155.10,67.57 154.10,68.47 152.10,68.47 Z
           M 144.10,59.86
           C 145.60,59.66 146.90,60.76 147.10,62.26
             147.10,62.46 147.10,62.66 147.10,62.86
             147.10,62.86 147.10,67.87 147.10,67.87
             147.10,67.97 147.10,67.97 147.00,67.97
             146.10,68.37 145.10,68.57 144.10,68.57
             142.20,68.57 140.80,67.57 140.80,65.97
             140.80,64.37 142.00,63.46 144.10,63.46
             144.90,63.46 145.80,63.56 146.60,63.76
             146.60,63.76 146.60,62.86 146.60,62.86
             146.80,61.66 145.90,60.56 144.70,60.36
             144.50,60.36 144.30,60.36 144.10,60.36
             143.20,60.36 142.30,60.66 141.50,61.06
             141.50,61.06 141.40,61.06 141.40,61.06
             141.40,61.06 141.30,60.86 141.30,60.86
             141.30,60.86 141.30,60.76 141.30,60.76
             142.10,60.16 143.10,59.86 144.10,59.86 Z
           M 144.10,68.07
           C 145.00,68.07 145.80,67.87 146.60,67.57
             146.60,67.57 146.60,64.17 146.60,64.17
             145.80,63.97 144.90,63.86 144.10,63.86
             142.30,63.86 141.30,64.67 141.30,65.97
             141.30,67.27 142.50,67.97 144.10,68.07
             144.10,68.07 144.10,68.07 144.10,68.07 Z
           M 135.60,68.47
           C 134.50,68.47 133.40,67.97 132.60,67.17
             132.60,67.17 132.60,67.07 132.60,67.07
             132.60,67.07 132.80,66.87 132.80,66.87
             132.80,66.77 132.90,66.77 132.90,66.87
             133.60,67.67 134.60,68.07 135.70,68.07
             137.40,68.07 138.20,67.17 138.20,65.07
             138.20,65.07 138.20,56.86 138.20,56.86
             138.20,56.76 138.20,56.76 138.30,56.76
             138.30,56.76 138.60,56.76 138.60,56.76
             138.70,56.76 138.70,56.76 138.70,56.86
             138.70,56.86 138.70,65.07 138.70,65.07
             138.70,67.37 137.60,68.47 135.60,68.47 Z
           M 124.30,59.86
           C 126.40,59.86 127.70,60.96 127.70,63.16
             127.70,63.16 127.70,68.27 127.70,68.27
             127.70,68.37 127.70,68.37 127.60,68.37
             127.60,68.37 127.30,68.37 127.30,68.37
             127.20,68.37 127.20,68.37 127.20,68.27
             127.20,68.27 127.20,68.27 127.20,68.27
             127.20,68.27 127.20,63.16 127.20,63.16
             127.20,61.26 126.20,60.36 124.30,60.36
             123.40,60.36 122.50,60.56 121.80,60.96
             121.80,60.96 121.80,68.27 121.80,68.27
             121.80,68.27 121.80,68.37 121.70,68.37
             121.70,68.37 121.70,68.37 121.70,68.37
             121.70,68.37 121.40,68.37 121.40,68.37
             121.40,68.37 121.30,68.37 121.30,68.27
             121.30,68.27 121.30,68.27 121.30,68.27
             121.30,68.27 121.30,56.86 121.30,56.86
             121.30,56.86 121.30,56.76 121.40,56.76
             121.40,56.76 121.40,56.76 121.40,56.76
             121.40,56.76 121.70,56.76 121.70,56.76
             121.70,56.76 121.80,56.76 121.80,56.86
             121.80,56.86 121.80,56.86 121.80,56.86
             121.80,56.86 121.80,60.46 121.80,60.46
             122.50,60.06 123.40,59.86 124.30,59.86 Z
           M 118.70,67.97
           C 119.00,67.97 119.40,67.97 119.70,67.87
             119.70,67.87 119.80,67.87 119.80,67.97
             119.80,67.97 119.80,67.97 119.80,67.97
             119.80,67.97 119.80,68.27 119.80,68.27
             119.80,68.37 119.80,68.37 119.70,68.37
             119.70,68.37 119.70,68.37 119.70,68.37
             119.40,68.37 119.00,68.37 118.70,68.37
             117.40,68.47 116.30,67.47 116.20,66.17
             116.20,65.97 116.20,65.87 116.20,65.67
             116.20,65.67 116.20,57.86 116.20,57.86
             116.20,57.76 116.20,57.76 116.30,57.76
             116.30,57.76 116.60,57.76 116.60,57.76
             116.70,57.76 116.70,57.76 116.70,57.86
             116.70,57.86 116.70,59.86 116.70,59.86
             116.70,59.86 119.40,59.86 119.40,59.86
             119.50,59.86 119.50,59.86 119.50,59.96
             119.50,59.96 119.50,60.26 119.50,60.26
             119.50,60.36 119.50,60.36 119.40,60.36
             119.40,60.36 116.70,60.36 116.70,60.36
             116.70,60.36 116.70,65.67 116.70,65.67
             116.70,67.17 117.40,67.97 118.70,67.97 Z
           M 113.50,58.16
           C 113.30,58.16 113.10,58.06 113.00,57.76
             113.00,57.56 113.10,57.36 113.40,57.26
             113.40,57.26 113.50,57.26 113.50,57.26
             113.70,57.26 113.90,57.36 114.00,57.66
             114.00,57.86 113.90,58.06 113.60,58.16
             113.60,58.16 113.50,58.16 113.50,58.16 Z
           M 113.30,68.37
           C 113.20,68.37 113.20,68.37 113.20,68.27
             113.20,68.27 113.20,60.06 113.20,60.06
             113.20,59.96 113.20,59.96 113.30,59.96
             113.30,59.96 113.30,59.96 113.30,59.96
             113.30,59.96 113.60,59.96 113.60,59.96
             113.70,59.96 113.70,59.96 113.70,60.06
             113.70,60.06 113.70,60.06 113.70,60.06
             113.70,60.06 113.70,68.17 113.70,68.17
             113.70,68.27 113.70,68.27 113.60,68.27
             113.60,68.27 113.30,68.27 113.30,68.27
             113.30,68.27 113.30,68.37 113.30,68.37 Z
           M 103.00,68.37
           C 103.00,68.37 102.90,68.37 102.90,68.27
             102.90,68.27 100.30,60.16 100.30,60.16
             100.30,60.06 100.30,60.06 100.40,60.06
             100.40,60.06 100.70,60.06 100.70,60.06
             100.80,60.06 100.80,60.06 100.80,60.16
             100.80,60.16 103.20,67.77 103.20,67.77
             103.20,67.77 103.20,67.77 103.20,67.77
             103.20,67.77 105.60,60.36 105.60,60.36
             105.60,60.36 105.70,60.26 105.70,60.26
             105.70,60.26 106.10,60.26 106.10,60.26
             106.20,60.26 106.20,60.26 106.20,60.36
             106.20,60.36 108.60,67.77 108.60,67.77
             108.60,67.77 111.00,60.16 111.00,60.16
             111.00,60.16 111.10,60.06 111.10,60.06
             111.10,60.06 111.40,60.06 111.40,60.06
             111.40,60.06 111.50,60.06 111.50,60.16
             111.50,60.16 111.50,60.16 111.50,60.16
             111.50,60.16 108.90,68.27 108.90,68.27
             108.90,68.27 108.90,68.37 108.80,68.37
             108.80,68.37 108.40,68.37 108.40,68.37
             108.30,68.37 108.30,68.37 108.30,68.27
             108.30,68.27 105.90,60.86 105.90,60.86
             105.90,60.86 105.90,60.86 105.90,60.86
             105.90,60.86 103.50,68.27 103.50,68.27
             103.50,68.27 103.50,68.37 103.40,68.37
             103.40,68.37 103.00,68.37 103.00,68.37 Z
           M 176.10,35.85
           C 175.40,36.95 174.60,38.05 173.60,38.95
             172.70,39.75 171.60,40.55 170.50,41.15
             169.50,41.75 168.40,42.25 167.30,42.65
             166.40,42.95 165.40,43.25 164.40,43.45
             162.30,43.96 160.80,43.76 159.80,42.95
             158.80,42.15 158.40,40.85 158.70,39.55
             158.80,38.65 159.10,37.85 159.60,37.15
             160.10,36.15 160.70,35.25 161.50,34.35
             162.30,33.45 163.10,32.55 164.00,31.75
             164.80,30.95 165.80,30.35 166.80,29.75
             167.60,29.25 168.50,29.05 169.40,29.15
             170.00,29.15 170.40,29.55 170.40,30.15
             170.40,30.15 170.40,30.25 170.40,30.25
             170.40,30.75 170.20,31.35 169.80,31.75
             168.80,33.25 167.50,34.55 166.00,35.55
             164.40,36.75 162.80,37.75 161.20,38.75
             160.80,39.85 161.20,41.05 162.10,41.75
             162.90,42.25 163.80,42.45 164.70,42.45
             165.90,42.45 167.10,42.15 168.30,41.65
             169.70,41.05 171.00,40.25 172.20,39.35
             173.60,38.25 174.80,36.95 175.80,35.45
             176.00,35.25 176.10,35.25 176.10,35.35
             176.20,35.55 176.20,35.75 176.10,35.85 Z
           M 168.60,31.35
           C 169.10,30.55 169.10,30.05 168.70,29.85
             168.30,29.65 167.80,29.65 167.00,30.15
             165.70,31.05 164.50,32.15 163.60,33.45
             162.60,34.85 161.80,36.35 161.30,38.05
             164.30,36.55 166.80,34.25 168.60,31.35 Z
           M 161.50,36.25
           C 160.30,37.45 159.10,38.45 157.70,39.45
             156.40,40.45 155.10,41.35 153.60,42.05
             150.80,43.45 148.90,43.86 148.00,43.25
             147.00,42.65 147.30,40.95 148.90,38.25
             148.90,38.25 149.80,36.65 149.80,36.65
             150.10,36.05 150.40,35.55 150.70,34.95
             151.00,34.35 151.30,33.85 151.50,33.25
             151.70,32.75 151.90,32.25 152.10,31.75
             152.20,31.55 152.20,31.45 152.10,31.35
             152.00,31.35 151.90,31.35 151.80,31.45
             150.70,32.15 149.70,32.85 148.80,33.75
             147.80,34.65 146.90,35.55 146.00,36.55
             145.30,37.65 144.70,38.75 144.00,39.85
             143.40,40.95 142.60,42.05 141.90,43.15
             141.60,43.66 141.30,43.55 141.10,43.05
             140.90,42.75 140.80,42.35 140.80,41.95
             140.80,41.55 140.80,41.15 141.10,40.85
             141.60,39.95 142.10,39.15 142.70,38.35
             143.30,37.55 143.90,36.65 144.40,35.75
             145.00,34.65 145.60,33.55 146.00,32.45
             146.50,31.25 147.00,30.15 147.70,29.15
             148.00,28.75 148.40,28.75 148.80,29.05
             149.00,29.15 149.10,29.35 149.20,29.65
             149.20,29.85 149.10,30.05 149.00,30.25
             148.70,30.85 148.30,31.55 147.90,32.35
             147.50,33.15 147.10,33.95 146.80,34.85
             148.10,33.75 149.30,32.65 150.60,31.65
             151.90,30.65 153.30,29.65 154.70,28.85
             155.00,28.65 155.40,28.75 155.70,29.05
             155.90,29.45 155.80,29.85 155.50,30.15
             154.40,31.75 153.40,33.45 152.40,35.25
             151.60,36.75 150.80,38.25 150.30,39.85
             149.90,40.95 149.90,41.75 150.40,42.25
             150.90,42.75 151.90,42.65 153.20,41.95
             154.70,41.15 156.00,40.25 157.40,39.25
             158.70,38.25 159.90,37.15 161.00,36.05
             161.20,35.85 161.30,35.85 161.40,35.95
             161.50,36.05 161.70,36.05 161.50,36.25 Z
           M 145.80,34.85
           C 145.20,35.65 144.60,36.35 143.90,37.25
             143.20,38.05 142.50,38.85 141.70,39.55
             140.90,40.25 140.10,40.95 139.30,41.65
             138.50,42.25 137.70,42.75 136.90,43.25
             134.40,44.56 132.80,44.86 132.10,43.96
             131.40,43.05 131.50,41.35 132.30,38.65
             132.50,37.95 132.80,37.25 133.10,36.55
             133.40,35.85 133.70,35.05 134.20,34.15
             133.10,35.65 132.00,37.05 130.80,38.35
             129.80,39.55 128.60,40.55 127.20,41.45
             126.00,42.25 125.10,42.35 124.60,41.75
             124.10,41.15 124.20,40.25 124.90,39.05
             125.80,37.55 126.80,36.15 128.00,34.85
             129.10,33.65 130.40,32.65 131.70,31.65
             132.30,31.15 133.00,30.75 133.70,30.45
             134.40,30.15 135.10,29.95 135.80,29.95
             136.10,29.35 136.40,28.75 136.70,28.15
             137.00,27.55 137.40,27.05 137.70,26.65
             137.80,26.45 138.00,26.35 138.10,26.35
             138.30,26.35 138.40,26.45 138.40,26.75
             138.40,26.85 138.40,27.05 138.50,27.15
             138.50,27.25 138.60,27.35 138.60,27.45
             138.60,27.45 138.70,27.75 138.70,27.75
             138.80,27.95 138.80,28.15 138.70,28.35
             137.50,30.25 136.50,32.15 135.60,34.15
             134.80,35.95 134.30,37.75 133.90,39.55
             133.60,40.95 133.70,41.95 134.30,42.45
             134.90,42.95 135.80,42.95 137.10,42.35
             137.90,42.05 138.60,41.65 139.30,41.05
             140.10,40.45 140.80,39.85 141.50,39.15
             142.20,38.45 142.90,37.75 143.60,36.95
             144.20,36.25 144.80,35.45 145.40,34.65
             145.50,34.45 145.70,34.35 145.80,34.55
             145.90,34.75 146.00,34.65 145.80,34.85 Z
           M 135.60,30.45
           C 134.90,30.45 134.30,30.65 133.70,30.95
             133.00,31.35 132.30,31.85 131.60,32.35
             131.20,32.65 130.80,33.05 130.50,33.45
             130.10,33.95 129.60,34.45 129.30,35.05
             128.90,35.65 128.50,36.15 128.20,36.75
             127.90,37.25 127.60,37.85 127.40,38.45
             127.10,39.25 127.10,39.85 127.40,40.05
             127.70,40.25 128.20,40.05 128.80,39.45
             130.10,38.25 131.30,36.95 132.40,35.55
             133.60,33.95 134.70,32.25 135.60,30.45 Z
           M 123.70,30.95
           C 123.70,31.35 123.60,31.75 123.50,32.05
             123.10,32.95 122.60,33.75 121.90,34.35
             121.10,35.15 120.30,35.85 119.50,36.45
             118.90,36.95 118.30,37.35 117.70,37.75
             117.10,38.15 116.50,38.55 115.90,39.05
             115.00,39.75 114.20,40.65 113.60,41.55
             113.30,42.05 112.90,42.35 112.40,42.65
             111.90,42.85 111.40,43.05 111.00,43.35
             110.70,43.45 110.60,43.45 110.70,43.45
             110.50,43.45 110.40,43.35 110.40,43.15
             110.40,42.95 110.40,42.95 110.50,42.85
             110.80,42.05 111.10,41.25 111.30,40.45
             111.50,39.65 111.70,38.95 111.90,38.05
             112.20,36.65 112.60,35.35 113.00,34.05
             113.40,32.75 114.00,31.55 114.70,30.35
             114.90,30.05 115.00,29.85 115.20,29.65
             115.40,29.45 115.60,29.25 115.90,29.15
             115.90,29.15 116.70,28.85 116.70,28.85
             117.00,28.75 117.20,28.65 117.50,28.55
             117.60,28.55 117.70,28.45 117.80,28.45
             118.00,28.45 118.10,28.55 118.10,28.65
             118.10,28.75 118.10,28.85 118.00,28.95
             117.60,29.25 117.30,29.65 117.10,30.05
             116.80,30.55 116.60,30.95 116.40,31.35
             115.80,32.65 115.30,33.85 114.80,35.15
             114.30,36.45 114.00,37.75 113.90,39.05
             113.90,39.05 113.90,39.15 113.90,39.15
             113.90,39.35 114.00,39.45 114.10,39.45
             114.10,39.45 114.20,39.45 114.20,39.35
             114.90,38.65 115.70,38.15 116.60,37.55
             117.40,37.05 118.20,36.55 119.10,35.95
             119.60,35.65 120.00,35.25 120.50,34.85
             121.00,34.45 121.30,34.05 121.70,33.55
             122.10,33.05 122.30,32.45 122.30,31.75
             122.30,31.15 121.90,30.55 121.40,30.15
             121.30,30.05 121.30,29.95 121.30,29.85
             121.30,29.65 121.40,29.55 121.50,29.45
             121.60,29.35 121.70,29.15 121.80,28.95
             122.20,28.45 122.50,28.25 122.70,28.25
             122.80,28.25 122.80,28.25 122.90,28.35
             123.30,29.25 123.70,30.15 123.70,30.95 Z
           M 111.40,38.25
           C 111.40,38.35 111.30,38.55 111.20,38.65
             109.70,39.95 108.40,41.05 107.20,41.95
             106.10,42.75 104.90,43.45 103.60,43.96
             102.70,44.26 101.70,44.46 100.80,44.56
             99.50,44.56 98.80,43.96 98.80,42.95
             98.80,42.45 98.90,41.95 99.10,41.55
             99.30,41.15 99.50,40.65 99.70,40.25
             100.00,39.65 100.30,39.05 100.60,38.55
             100.60,38.55 101.30,37.15 101.30,37.15
             101.30,37.05 101.30,37.05 101.30,36.95
             101.30,36.95 101.30,36.85 101.30,36.85
             101.30,36.75 101.30,36.75 101.20,36.75
             101.10,36.75 101.00,36.85 100.90,36.85
             99.90,37.95 98.70,38.95 97.60,39.85
             97.20,40.15 96.80,40.35 96.40,40.55
             96.10,40.65 95.70,40.75 95.30,40.75
             95.30,40.75 95.20,40.75 95.20,40.75
             94.80,40.75 94.50,40.55 94.20,40.35
             93.90,40.05 93.80,39.75 93.80,39.35
             93.80,39.35 93.80,39.25 93.80,39.25
             93.90,38.45 94.20,37.75 94.70,37.15
             95.40,36.05 96.10,35.05 96.80,33.95
             97.40,33.15 97.80,32.15 98.10,31.15
             98.20,30.75 98.20,30.55 98.20,30.45
             98.20,29.95 98.00,29.65 97.50,29.65
             97.40,29.65 97.40,29.65 97.30,29.65
             97.30,29.65 97.20,29.65 97.10,29.65
             96.60,29.75 96.10,29.95 95.60,30.15
             95.10,30.45 94.70,30.75 94.20,31.05
             94.10,31.05 94.00,31.15 94.00,31.15
             93.90,31.15 93.80,31.05 93.70,30.95
             93.70,30.95 93.70,30.95 93.70,30.85
             93.70,30.75 93.80,30.55 94.00,30.45
             94.50,30.15 95.10,29.85 95.60,29.65
             96.10,29.45 96.60,29.25 97.10,29.05
             97.50,28.95 97.90,28.85 98.40,28.85
             98.80,28.85 99.10,28.95 99.50,29.15
             99.90,29.35 100.20,29.85 100.30,30.35
             100.20,30.65 100.10,31.05 100.00,31.35
             99.70,31.95 99.40,32.55 99.00,33.15
             98.60,33.75 98.30,34.35 97.90,34.95
             97.50,35.55 97.20,36.15 96.90,36.65
             96.60,37.15 96.30,37.75 96.00,38.35
             95.80,38.75 95.80,39.05 95.70,39.45
             95.70,39.75 95.80,39.95 96.10,39.95
             96.50,39.85 96.90,39.75 97.20,39.45
             98.00,38.85 98.80,38.25 99.50,37.55
             100.20,36.85 100.90,36.15 101.60,35.35
             102.10,34.85 102.50,34.25 102.90,33.65
             103.30,33.05 103.70,32.45 104.20,31.85
             104.50,31.45 104.80,30.95 105.10,30.55
             105.40,30.15 105.60,29.75 106.00,29.45
             106.10,29.35 106.20,29.15 106.40,29.05
             106.50,28.95 106.70,28.85 106.90,28.85
             106.90,28.85 107.40,28.85 107.40,28.85
             107.60,28.85 107.90,28.95 108.00,29.15
             108.00,29.35 107.90,29.55 107.70,29.75
             107.70,29.75 105.20,33.45 105.20,33.45
             104.50,34.55 103.80,35.55 103.20,36.75
             102.50,38.25 101.80,39.85 101.40,41.45
             101.40,41.65 101.30,41.85 101.30,41.95
             101.30,42.05 101.30,42.15 101.30,42.35
             101.20,42.85 101.60,43.35 102.10,43.45
             102.20,43.45 102.30,43.45 102.40,43.45
             102.70,43.45 102.90,43.35 103.20,43.35
             104.70,42.95 106.10,42.25 107.30,41.45
             108.70,40.45 110.00,39.35 111.20,38.25
             111.30,38.15 111.40,38.15 111.50,38.15
             111.30,37.95 111.40,38.05 111.40,38.25 Z
           M 91.80,30.55
           C 91.60,31.05 91.40,31.05 91.20,30.65
             91.20,30.55 91.10,30.45 90.90,30.35
             90.80,30.25 90.70,30.25 90.50,30.15
             90.10,30.05 89.70,30.05 89.20,30.15
             88.70,30.25 88.10,30.35 87.60,30.55
             86.70,30.95 85.90,31.45 85.20,31.95
             84.40,32.55 83.70,33.15 83.00,33.85
             82.30,34.55 81.60,35.25 81.00,35.95
             80.40,36.75 79.80,37.45 79.30,38.15
             79.00,38.95 78.60,39.75 78.30,40.55
             78.00,41.15 77.70,41.75 77.40,42.35
             77.10,42.95 76.60,43.35 76.00,43.45
             75.70,43.66 75.20,43.66 74.90,43.45
             74.70,43.25 74.70,42.85 75.10,42.35
             75.90,41.25 76.80,39.85 78.10,38.35
             78.40,37.75 78.70,37.05 79.00,36.35
             79.30,35.65 79.60,34.85 79.80,34.15
             80.00,33.45 80.30,32.75 80.50,32.05
             80.70,31.35 80.90,30.75 81.00,30.25
             81.10,30.05 81.20,29.85 81.30,29.65
             81.40,29.45 81.60,29.35 81.80,29.35
             81.90,29.25 82.10,29.25 82.20,29.25
             82.30,29.25 82.50,29.25 82.60,29.15
             83.00,29.05 83.30,29.15 83.40,29.45
             83.50,29.75 83.40,30.15 83.20,30.45
             82.90,31.15 82.60,31.95 82.20,32.65
             81.80,33.35 81.30,34.35 80.80,35.45
             81.60,34.55 82.50,33.55 83.40,32.55
             84.30,31.55 85.20,30.55 86.20,29.65
             87.00,29.05 88.00,28.45 89.00,27.95
             89.80,27.55 90.80,27.65 91.50,28.15
             91.90,28.35 92.10,28.85 92.20,29.25
             92.10,29.65 92.00,30.15 91.80,30.55 Z
           M 92.60,3.64
           C 92.80,4.34 92.90,5.14 92.90,5.84
             92.80,6.54 92.70,7.24 92.40,7.94
             92.10,8.64 91.70,9.34 91.20,9.94
             90.60,10.74 90.00,11.44 89.30,12.14
             88.60,12.84 87.80,13.64 86.90,14.54
             86.00,15.44 85.00,16.34 84.10,17.34
             84.10,17.34 81.20,20.04 81.20,20.04
             80.20,20.94 79.40,21.74 78.60,22.44
             77.80,23.14 77.00,23.75 76.20,24.55
             75.40,25.35 74.60,26.05 73.70,26.85
             72.80,27.65 72.00,28.35 71.10,28.95
             70.30,29.55 69.40,30.15 68.50,30.55
             68.50,30.55 68.20,30.65 68.20,30.65
             68.10,30.75 67.90,30.75 67.80,30.95
             67.70,31.05 67.60,31.15 67.60,31.35
             67.30,31.85 67.10,32.35 66.80,32.95
             66.50,33.55 66.20,34.15 66.00,34.75
             65.80,35.35 65.50,35.95 65.20,36.55
             64.90,37.15 64.70,37.65 64.60,38.05
             64.40,38.65 64.20,39.35 64.10,40.05
             64.00,40.65 64.00,41.25 64.20,41.85
             64.30,42.05 64.50,42.25 64.70,42.25
             65.00,42.25 65.30,42.25 65.50,42.05
             66.20,41.65 66.80,41.15 67.30,40.65
             67.90,40.05 68.40,39.45 68.80,38.75
             69.00,38.35 69.20,37.95 69.40,37.55
             69.60,37.15 69.70,36.85 69.80,36.45
             69.90,36.15 70.00,35.75 70.10,35.45
             70.20,35.15 70.20,34.85 70.10,34.55
             70.00,33.85 69.80,33.25 69.80,32.55
             69.70,31.85 69.70,31.05 69.70,30.35
             69.70,29.75 69.90,29.55 70.30,29.55
             70.50,29.55 70.70,29.55 70.90,29.55
             71.10,29.55 71.30,29.55 71.40,29.35
             71.50,29.25 71.70,29.25 71.80,29.35
             71.80,29.35 71.80,29.35 71.80,29.45
             71.90,29.65 72.00,29.85 72.00,30.15
             72.00,31.15 72.00,32.15 72.10,33.15
             72.20,33.95 72.40,34.85 72.60,35.65
             72.80,36.25 73.20,36.65 73.80,36.75
             74.40,36.95 75.00,36.85 75.60,36.55
             76.60,36.05 77.50,35.55 78.40,34.95
             79.30,34.25 80.20,33.45 81.00,32.65
             81.20,32.45 81.40,32.35 81.50,32.45
             81.60,32.55 81.60,32.65 81.40,32.85
             80.40,33.95 79.30,34.85 78.10,35.65
             76.90,36.55 75.50,37.25 74.20,37.75
             73.60,37.95 73.10,38.05 72.50,38.15
             71.90,38.15 71.60,38.05 71.40,37.75
             71.20,37.45 71.00,37.25 70.80,37.25
             70.60,37.25 70.50,37.35 70.40,37.55
             69.90,38.55 69.20,39.55 68.40,40.35
             67.80,41.15 67.00,41.75 66.20,42.35
             65.30,42.95 64.40,43.45 63.50,43.86
             62.70,44.36 61.70,44.16 61.10,43.45
             60.80,42.95 60.70,42.35 60.90,41.85
             61.20,40.35 61.70,38.95 62.30,37.55
             63.00,35.95 63.70,34.55 64.50,33.15
             64.70,32.85 64.90,32.55 65.10,32.25
             65.30,31.95 65.50,31.65 65.70,31.25
             66.70,29.65 67.70,27.95 68.90,26.25
             70.10,24.55 71.20,22.74 72.50,20.94
             73.10,20.04 73.80,19.14 74.60,18.04
             75.40,16.94 76.20,15.94 77.10,14.84
             78.00,13.74 78.90,12.64 79.80,11.64
             80.70,10.64 81.60,9.54 82.50,8.54
             83.20,7.84 84.00,7.04 84.90,6.14
             85.70,5.34 86.60,4.64 87.50,3.94
             88.00,3.54 88.50,3.24 89.00,2.93
             89.50,2.63 90.10,2.43 90.70,2.43
             91.10,2.43 91.40,2.53 91.70,2.73
             92.40,2.83 92.60,3.24 92.60,3.64 Z
           M 90.20,6.84
           C 90.10,4.74 89.20,4.14 87.30,5.24
             86.40,5.74 85.50,6.44 84.80,7.14
             83.90,8.04 83.10,8.84 82.20,9.74
             81.10,10.84 80.00,12.24 78.90,13.74
             77.80,15.24 76.50,16.84 75.40,18.54
             74.30,20.24 73.10,22.04 72.00,23.85
             70.90,25.65 69.90,27.45 68.90,29.25
             68.80,29.35 68.80,29.45 68.90,29.45
             69.00,29.45 69.10,29.45 69.20,29.35
             70.60,28.25 72.20,27.05 74.00,25.65
             75.80,24.25 77.40,22.74 79.10,21.24
             80.80,19.74 82.30,18.24 83.80,16.74
             85.30,15.24 86.50,13.94 87.50,12.84
             88.30,11.94 89.00,10.94 89.60,9.84
             90.00,8.94 90.20,7.84 90.20,6.84
             90.20,6.84 90.20,6.84 90.20,6.84 Z
           M 65.60,33.45
           C 64.50,34.25 63.40,35.05 62.30,35.65
             61.10,36.35 59.90,36.85 58.60,37.35
             57.60,37.85 56.30,37.85 55.30,37.45
             55.00,37.95 54.80,38.35 54.50,38.85
             54.20,39.25 53.90,39.75 53.60,40.15
             52.80,41.25 51.80,42.05 50.70,42.75
             50.00,43.25 49.10,43.45 48.20,43.25
             47.50,43.05 46.90,42.45 46.80,41.75
             46.60,40.65 46.70,39.45 47.10,38.45
             47.40,37.65 47.80,36.85 48.30,36.05
             48.80,35.25 49.50,34.45 50.10,33.65
             50.80,32.95 51.50,32.25 52.30,31.65
             53.00,31.15 53.70,30.65 54.50,30.25
             55.00,30.05 55.60,29.85 56.10,29.85
             56.20,29.75 56.20,29.75 56.30,29.65
             56.30,29.65 56.50,29.55 56.50,29.55
             56.70,29.45 56.90,29.35 57.20,29.35
             57.20,29.35 58.00,29.25 58.00,29.25
             58.20,29.25 58.30,29.35 58.30,29.55
             58.30,29.75 58.30,30.05 58.20,30.25
             57.90,30.95 57.70,31.65 57.40,32.35
             57.10,33.05 56.90,33.65 56.80,34.25
             56.50,34.95 56.70,35.75 57.20,36.35
             57.80,36.85 58.60,36.95 59.30,36.65
             60.40,36.25 61.50,35.85 62.50,35.25
             63.60,34.65 64.50,33.95 65.40,33.15
             65.60,32.95 65.70,32.95 65.80,33.05
             65.70,33.25 65.70,33.35 65.60,33.45 Z
           M 55.80,30.75
           C 55.60,30.45 55.20,30.35 54.90,30.55
             54.40,30.75 54.00,31.05 53.70,31.45
             53.20,31.95 52.70,32.45 52.30,33.05
             51.80,33.65 51.40,34.35 51.00,34.95
             50.50,35.85 50.10,36.75 49.70,37.65
             49.40,38.35 49.10,39.15 48.90,39.95
             48.60,41.45 48.70,42.25 49.40,42.55
             50.10,42.85 51.00,42.25 52.10,40.95
             53.10,39.75 54.00,38.45 54.60,37.05
             54.10,36.15 54.10,35.05 54.70,34.25
             54.90,33.75 55.10,33.15 55.30,32.65
             55.50,32.05 55.70,31.35 55.80,30.75 Z
           M 44.60,3.34
           C 44.60,3.44 44.60,3.54 44.60,3.64
             44.60,3.74 44.60,3.84 44.60,3.94
             44.60,3.94 44.50,4.24 44.50,4.24
             44.50,4.24 44.50,4.54 44.50,4.54
             44.50,4.54 44.50,4.64 44.50,4.64
             44.50,4.64 44.50,4.74 44.50,4.74
             44.50,4.74 44.50,4.84 44.50,4.84
             44.50,4.94 44.40,5.04 44.20,5.04
             44.20,5.04 44.10,5.04 44.00,4.94
             43.40,4.34 42.60,4.04 41.80,4.04
             40.90,4.04 40.00,4.34 39.20,4.84
             38.30,5.54 37.40,6.24 36.60,7.04
             35.80,7.84 35.10,8.64 34.50,9.44
             34.00,10.14 33.50,10.84 33.00,11.64
             32.50,12.44 32.00,13.24 31.50,14.04
             33.20,15.24 34.70,16.54 36.10,17.94
             37.50,19.34 38.70,20.74 39.80,22.34
             42.30,25.65 43.60,29.65 43.70,33.85
             43.70,33.85 43.70,34.95 43.70,34.95
             43.60,37.15 42.90,39.25 41.60,41.05
             40.30,42.85 38.50,44.26 36.50,45.16
             34.60,46.06 32.60,46.76 30.50,47.26
             28.50,47.76 26.40,47.96 24.30,47.96
             24.30,47.96 23.00,47.96 23.00,47.96
             22.50,47.96 22.10,47.86 21.60,47.86
             19.80,47.66 18.00,47.36 16.20,46.86
             14.50,46.36 12.80,45.76 11.10,45.06
             9.90,44.56 8.70,44.06 7.60,43.45
             6.50,42.85 5.50,42.45 4.60,42.05
             4.20,41.85 4.00,41.75 4.00,41.65
             4.00,41.55 4.20,41.25 4.50,40.95
             4.60,40.85 4.70,40.75 4.80,40.75
             4.80,40.75 5.10,40.55 5.10,40.55
             5.10,40.55 4.10,40.45 4.10,40.45
             3.80,40.45 3.40,40.35 3.10,40.25
             2.60,40.15 2.00,40.05 1.50,39.95
             1.00,39.85 0.60,39.65 0.20,39.55
             0.00,39.55 -0.10,39.45 -0.10,39.25
             -0.10,39.05 0.00,39.15 0.20,39.15
             0.20,39.15 0.40,39.15 0.40,39.15
             1.20,39.35 2.00,39.55 2.80,39.65
             3.70,39.75 4.50,39.85 5.40,39.85
             5.40,39.85 5.80,39.85 5.80,39.85
             5.80,39.85 6.40,39.45 6.40,39.45
             6.60,39.35 6.80,39.35 7.00,39.35
             7.40,39.35 7.70,39.45 8.00,39.65
             8.00,39.65 8.20,39.75 8.20,39.75
             9.40,39.65 10.50,39.35 11.50,38.75
             13.10,37.85 14.50,36.55 15.60,35.15
             16.50,34.05 17.60,32.65 18.80,31.05
             20.00,29.45 21.20,27.65 22.40,25.95
             23.60,24.15 24.80,22.34 26.00,20.64
             27.20,18.94 28.20,17.34 29.00,15.94
             29.00,15.94 29.60,15.04 29.60,15.04
             29.80,14.74 30.00,14.44 30.20,14.14
             30.10,14.04 30.00,13.94 29.80,13.94
             29.70,13.84 29.60,13.84 29.50,13.74
             28.10,12.84 26.60,11.94 25.10,11.24
             23.70,10.54 22.10,10.04 20.60,9.74
             19.90,9.64 19.20,9.54 18.50,9.44
             17.80,9.34 17.20,9.34 16.50,9.34
             14.20,9.34 11.90,9.84 9.90,10.84
             7.80,11.94 6.20,13.64 5.10,15.74
             4.90,16.04 4.80,16.34 4.70,16.64
             4.60,16.94 4.50,17.24 4.50,17.54
             4.50,17.74 4.40,17.84 4.30,17.84
             4.20,17.84 4.10,17.74 4.00,17.64
             3.70,17.34 3.50,17.14 3.30,16.84
             3.30,16.84 2.80,16.24 2.80,16.24
             2.60,16.04 2.50,15.84 2.50,15.64
             2.50,15.64 2.50,15.54 2.50,15.54
             2.50,15.44 2.50,15.44 2.50,15.34
             2.70,14.44 3.10,13.54 3.60,12.74
             4.10,11.84 4.80,11.04 5.60,10.34
             6.30,9.74 7.10,9.24 8.00,8.84
             8.90,8.44 9.90,8.14 10.80,7.94
             11.40,7.84 11.90,7.84 12.40,7.74
             12.90,7.64 13.40,7.64 13.90,7.64
             14.70,7.64 15.50,7.64 16.30,7.74
             17.10,7.84 17.80,7.94 18.60,8.14
             20.70,8.64 22.70,9.24 24.60,10.14
             26.40,10.94 28.20,11.84 29.90,12.94
             29.90,12.94 30.20,13.14 30.20,13.14
             30.20,13.14 30.50,13.34 30.50,13.34
             31.10,12.54 31.60,11.84 32.20,11.14
             32.80,10.44 33.30,9.84 33.80,9.24
             34.90,8.04 36.00,6.74 37.20,5.34
             38.30,4.04 39.40,2.83 40.80,1.73
             41.30,1.33 41.90,1.13 42.50,1.13
             43.60,1.13 44.50,1.93 44.60,3.03
             44.50,3.14 44.50,3.24 44.60,3.34
             44.60,3.34 44.60,3.34 44.60,3.34 Z
           M 40.30,34.05
           C 40.30,33.55 40.30,33.15 40.30,32.65
             40.30,32.15 40.20,31.75 40.20,31.25
             39.90,27.95 38.80,24.85 37.20,21.94
             35.60,19.14 33.60,16.74 31.10,14.64
             31.10,14.64 29.80,16.64 29.80,16.64
             29.80,16.64 28.60,18.54 28.60,18.54
             26.80,21.34 25.10,24.15 23.30,26.75
             21.60,29.35 19.80,31.75 17.80,34.15
             16.70,35.45 15.50,36.65 14.00,37.55
             12.80,38.35 11.50,39.05 10.20,39.55
             10.00,39.65 9.80,39.65 9.60,39.75
             9.40,39.85 9.20,39.85 9.00,39.95
             10.00,40.55 11.00,41.15 12.10,41.65
             13.20,42.15 14.10,42.65 15.10,43.15
             16.80,43.86 18.60,44.56 20.40,45.06
             22.30,45.56 24.20,45.96 26.10,46.16
             26.10,46.16 27.20,46.26 27.20,46.26
             27.20,46.26 28.20,46.26 28.20,46.26
             30.30,46.26 32.40,45.86 34.30,45.06
             36.10,44.26 37.60,42.75 38.60,40.95
             39.20,39.85 39.60,38.75 39.80,37.55
             40.10,36.55 40.30,35.25 40.30,34.05 Z" />
</svg>
