<svg xmlns="http://www.w3.org/2000/svg" viewBox="-0.7 0.13 211.7 77.61">  
<?xml-stylesheet type="text/css" href="/assets/css/dobruvane.css"?>
<path id="dobruvame-logo-svg" fill="black" stroke="black" stroke-width="1" d="M 203.20,68.56            C 203.10,68.56 203.10,68.56 203.10,68.46              203.10,68.46 203.10,68.16 203.10,68.16              203.10,68.06 203.10,68.06 203.20,68.06              204.10,68.06 204.60,67.56 204.80,65.36              204.90,64.26 205.10,62.66 205.20,60.26              205.20,60.16 205.20,60.16 205.30,60.16              205.30,60.16 205.30,60.16 205.30,60.16              205.30,60.16 210.40,60.16 210.40,60.16              210.50,60.16 210.50,60.16 210.50,60.26              210.50,60.26 210.50,68.36 210.50,68.36              210.50,68.36 210.50,68.46 210.40,68.46              210.40,68.46 210.40,68.46 210.40,68.46              210.40,68.46 210.10,68.46 210.10,68.46              210.00,68.46 210.00,68.46 210.00,68.36              210.00,68.36 210.00,68.36 210.00,68.36              210.00,68.36 210.00,60.56 210.00,60.56              210.00,60.56 205.70,60.56 205.70,60.56              205.60,62.76 205.40,64.36 205.30,65.46              205.00,67.86 204.40,68.46 203.20,68.56 Z            M 198.80,59.96            C 200.30,59.76 201.60,60.86 201.80,62.36              201.80,62.56 201.80,62.76 201.80,62.96              201.80,62.96 201.80,67.96 201.80,67.96              201.80,67.96 201.80,68.06 201.70,68.06              200.80,68.46 199.80,68.66 198.80,68.66              196.90,68.66 195.50,67.66 195.50,66.06              195.50,64.46 196.70,63.56 198.80,63.56              199.70,63.56 200.50,63.66 201.30,63.86              201.30,63.86 201.30,63.06 201.30,63.06              201.50,61.86 200.60,60.76 199.40,60.56              199.20,60.56 199.00,60.56 198.80,60.56              197.90,60.56 197.00,60.76 196.20,61.26              196.20,61.26 196.10,61.26 196.10,61.26              196.10,61.26 196.00,61.06 196.00,61.06              196.00,61.06 196.00,60.96 196.00,60.96              196.80,60.26 197.80,59.96 198.80,59.96 Z            M 198.80,68.16            C 199.70,68.16 200.50,67.96 201.30,67.66              201.30,67.66 201.30,64.26 201.30,64.26              200.50,64.06 199.60,63.96 198.80,63.96              197.00,63.96 196.00,64.76 196.00,66.06              196.00,67.36 197.10,68.16 198.80,68.16              198.80,68.16 198.80,68.16 198.80,68.16 Z            M 196.10,56.86            C 196.20,56.86 196.20,56.86 196.20,56.96              196.20,56.96 196.20,57.26 196.20,57.26              196.20,57.36 196.20,57.36 196.10,57.36              196.10,57.36 196.10,57.36 196.10,57.36              196.10,57.36 192.30,57.36 192.30,57.36              192.30,57.36 192.30,68.36 192.30,68.36              192.30,68.46 192.30,68.46 192.20,68.46              192.20,68.46 192.20,68.46 192.20,68.46              192.20,68.46 191.90,68.46 191.90,68.46              191.80,68.46 191.80,68.46 191.80,68.36              191.80,68.36 191.80,68.36 191.80,68.36              191.80,68.36 191.80,57.36 191.80,57.36              191.80,57.36 188.00,57.36 188.00,57.36              188.00,57.36 187.90,57.36 187.90,57.26              187.90,57.26 187.90,57.26 187.90,57.26              187.90,57.26 187.90,56.96 187.90,56.96              187.90,56.86 187.90,56.86 188.00,56.86              188.00,56.86 196.10,56.86 196.10,56.86 Z            M 180.20,59.96            C 181.70,59.76 183.00,60.86 183.20,62.36              183.20,62.56 183.20,62.76 183.20,62.96              183.20,62.96 183.20,67.96 183.20,67.96              183.20,68.06 183.20,68.06 183.10,68.06              182.20,68.46 181.20,68.66 180.20,68.66              178.30,68.66 176.90,67.66 176.90,66.06              176.90,64.46 178.10,63.56 180.20,63.56              181.00,63.56 181.90,63.66 182.70,63.86              182.70,63.86 182.70,63.06 182.70,63.06              182.90,61.86 182.10,60.76 180.80,60.56              180.60,60.56 180.40,60.56 180.20,60.56              179.30,60.56 178.40,60.76 177.60,61.26              177.60,61.26 177.50,61.26 177.50,61.26              177.50,61.26 177.40,61.06 177.40,61.06              177.40,61.06 177.40,60.96 177.40,60.96              178.20,60.26 179.20,59.96 180.20,59.96 Z            M 180.20,68.16            C 181.10,68.16 181.90,67.96 182.70,67.66              182.70,67.66 182.70,64.26 182.70,64.26              181.90,64.06 181.00,63.96 180.20,63.96              178.40,63.96 177.40,64.76 177.40,66.06              177.40,67.36 178.60,68.16 180.20,68.16              180.20,68.16 180.20,68.16 180.20,68.16 Z            M 168.90,68.46            C 168.80,68.46 168.80,68.46 168.90,68.46              168.90,68.46 168.80,60.26 168.80,60.26              168.80,60.16 168.80,60.16 168.90,60.16              168.90,60.16 169.20,60.16 169.20,60.16              169.30,60.16 169.30,60.16 169.30,60.26              169.30,60.26 169.30,63.96 169.30,63.96              169.30,63.96 174.50,63.96 174.50,63.96              174.50,63.96 174.50,60.26 174.50,60.26              174.50,60.16 174.50,60.16 174.60,60.16              174.60,60.16 174.90,60.16 174.90,60.16              175.00,60.16 175.00,60.16 175.00,60.26              175.00,60.26 175.00,60.26 175.00,60.26              175.00,60.26 175.00,68.36 175.00,68.36              175.00,68.46 175.00,68.46 174.90,68.46              174.90,68.46 174.90,68.46 174.90,68.46              174.90,68.46 174.60,68.46 174.60,68.46              174.50,68.46 174.50,68.46 174.50,68.36              174.50,68.36 174.50,64.36 174.50,64.36              174.50,64.36 169.30,64.36 169.30,64.36              169.30,64.36 169.30,68.36 169.30,68.36              169.30,68.36 169.30,68.46 169.20,68.46              169.20,68.46 169.20,68.46 169.20,68.46              169.20,68.46 168.90,68.46 168.90,68.46 Z            M 159.80,68.46            C 159.70,68.46 159.70,68.46 159.70,68.36              159.70,68.36 159.70,68.36 159.70,68.36              159.70,68.36 159.70,60.26 159.70,60.26              159.70,60.16 159.70,60.16 159.80,60.16              159.80,60.16 159.80,60.16 159.80,60.16              159.80,60.16 160.10,60.16 160.10,60.16              160.20,60.16 160.20,60.16 160.20,60.26              160.20,60.26 160.20,67.76 160.20,67.76              160.20,67.76 165.60,60.26 165.60,60.26              165.60,60.26 165.70,60.16 165.70,60.16              165.70,60.16 166.10,60.16 166.10,60.16              166.20,60.16 166.20,60.16 166.20,60.26              166.20,60.26 166.20,68.36 166.20,68.36              166.20,68.46 166.20,68.46 166.10,68.46              166.10,68.46 165.80,68.46 165.80,68.46              165.70,68.46 165.70,68.46 165.70,68.36              165.70,68.36 165.70,60.86 165.70,60.86              165.70,60.86 165.70,60.86 165.70,60.86              165.40,61.26 165.00,61.86 160.30,68.36              160.30,68.36 160.20,68.46 160.20,68.46              160.20,68.46 159.80,68.46 159.80,68.46 Z            M 149.30,68.46            C 149.20,68.46 149.20,68.46 149.20,68.36              149.20,68.36 149.20,68.36 149.20,68.36              149.20,68.36 149.20,60.26 149.20,60.26              149.20,60.16 149.20,60.16 149.30,60.16              149.30,60.16 149.30,60.16 149.30,60.16              149.30,60.16 149.70,60.16 149.70,60.16              149.80,60.16 149.80,60.16 149.80,60.26              149.80,60.26 153.20,66.26 153.20,66.26              153.20,66.26 156.60,60.26 156.60,60.26              156.60,60.26 156.70,60.16 156.70,60.16              156.70,60.16 157.10,60.16 157.10,60.16              157.20,60.16 157.20,60.16 157.20,60.26              157.20,60.26 157.20,68.36 157.20,68.36              157.20,68.46 157.20,68.46 157.10,68.46              157.10,68.46 156.80,68.46 156.80,68.46              156.80,68.46 156.70,68.46 156.70,68.36              156.70,68.36 156.70,68.36 156.70,68.36              156.70,68.36 156.70,61.06 156.70,61.06              156.70,61.06 153.40,66.76 153.40,66.76              153.40,66.86 153.30,66.86 153.20,66.86              153.20,66.86 153.20,66.86 153.20,66.86              153.20,66.86 153.00,66.86 153.00,66.86              153.00,66.86 152.90,66.86 152.90,66.76              152.90,66.76 149.60,61.06 149.60,61.06              149.60,61.06 149.60,68.46 149.60,68.46              149.60,68.46 149.60,68.56 149.50,68.56              149.50,68.56 149.50,68.56 149.50,68.56              149.50,68.56 149.30,68.46 149.30,68.46 Z            M 144.60,68.66            C 142.90,68.76 141.50,67.56 141.40,65.86              141.40,65.76 141.40,65.66 141.40,65.66              141.40,65.66 141.40,62.96 141.40,62.96              141.40,61.26 142.70,59.96 144.40,59.96              144.50,59.96 144.60,59.96 144.60,59.96              145.50,59.96 146.50,60.26 147.20,60.86              147.30,60.86 147.30,60.96 147.20,61.06              147.20,61.06 147.10,61.26 147.10,61.26              147.00,61.26 147.00,61.36 147.00,61.26              146.30,60.76 145.50,60.46 144.60,60.46              143.20,60.36 142.00,61.36 141.90,62.66              141.90,62.76 141.90,62.86 141.90,62.96              141.90,62.96 141.90,65.66 141.90,65.66              141.90,67.06 143.00,68.16 144.30,68.16              144.40,68.16 144.50,68.16 144.60,68.16              145.50,68.16 146.40,67.86 147.20,67.26              147.30,67.26 147.30,67.26 147.30,67.26              147.30,67.26 147.50,67.46 147.50,67.46              147.50,67.46 147.50,67.56 147.50,67.56              147.50,67.56 147.50,67.56 147.50,67.56              146.60,68.26 145.60,68.66 144.60,68.66 Z            M 135.10,56.86            C 135.10,56.86 138.70,56.86 138.70,56.86              138.80,56.86 138.80,56.86 138.80,56.96              138.80,56.96 138.80,68.36 138.80,68.36              138.80,68.36 138.80,68.46 138.70,68.46              138.70,68.46 138.70,68.46 138.70,68.46              138.70,68.46 138.40,68.46 138.40,68.46              138.30,68.46 138.30,68.46 138.30,68.36              138.30,68.36 138.30,63.86 138.30,63.86              138.30,63.86 135.30,63.86 135.30,63.86              135.30,63.86 131.60,68.46 131.60,68.46              131.60,68.46 131.50,68.56 131.50,68.56              131.50,68.56 131.00,68.56 131.00,68.56              130.90,68.56 130.90,68.46 130.90,68.46              130.90,68.46 134.60,63.96 134.60,63.96              132.40,63.86 131.10,62.66 131.10,60.46              131.10,58.26 132.60,56.86 135.10,56.86 Z            M 138.30,63.36            C 138.30,63.36 138.30,57.46 138.30,57.46              138.30,57.46 135.10,57.46 135.10,57.46              132.90,57.46 131.70,58.56 131.70,60.46              131.70,62.36 132.90,63.46 135.10,63.46              135.10,63.46 138.30,63.36 138.30,63.36 Z            M 123.00,68.66            C 121.30,68.76 119.90,67.56 119.80,65.86              119.80,65.76 119.80,65.66 119.80,65.66              119.80,65.66 119.80,62.96 119.80,62.96              119.80,61.26 121.10,59.96 122.80,59.96              122.90,59.96 123.00,59.96 123.00,59.96              123.90,59.96 124.80,60.26 125.60,60.86              125.60,60.86 125.60,60.96 125.60,60.96              125.60,60.96 125.60,60.96 125.60,60.96              125.60,60.96 125.50,61.16 125.50,61.16              125.50,61.16 125.40,61.26 125.40,61.16              124.70,60.66 123.90,60.36 123.00,60.36              121.60,60.26 120.40,61.26 120.30,62.56              120.30,62.66 120.30,62.76 120.30,62.86              120.30,62.86 120.30,65.56 120.30,65.56              120.30,66.96 121.40,68.06 122.70,68.06              122.80,68.06 122.90,68.06 123.00,68.06              123.90,68.06 124.80,67.76 125.60,67.16              125.60,67.16 125.70,67.06 125.70,67.16              125.70,67.16 125.70,67.16 125.70,67.16              125.70,67.16 125.90,67.36 125.90,67.36              125.90,67.36 125.90,67.46 125.90,67.46              125.90,67.46 125.90,67.46 125.90,67.46              125.10,68.26 124.10,68.66 123.00,68.66 Z            M 173.90,36.95            C 173.20,38.05 172.40,39.05 171.40,39.95              170.50,40.85 169.40,41.55 168.30,42.25              167.30,42.85 166.20,43.35 165.10,43.75              164.20,44.05 163.20,44.35 162.20,44.55              160.10,45.05 158.60,44.85 157.60,44.05              156.60,43.25 156.20,41.95 156.50,40.65              156.60,39.75 156.90,38.95 157.40,38.25              157.90,37.25 158.50,36.35 159.30,35.45              160.10,34.55 160.90,33.65 161.80,32.85              162.60,32.05 163.60,31.45 164.60,30.85              165.40,30.34 166.30,30.14 167.20,30.24              167.80,30.24 168.20,30.65 168.20,31.25              168.20,31.25 168.20,31.35 168.20,31.35              168.20,31.85 168.00,32.45 167.60,32.85              166.60,34.35 165.30,35.65 163.80,36.65              162.20,37.85 160.60,38.85 159.00,39.85              158.60,40.95 159.00,42.15 159.90,42.85              160.70,43.35 161.60,43.55 162.50,43.55              163.70,43.55 164.90,43.25 166.10,42.75              167.50,42.15 168.80,41.35 170.00,40.45              171.40,39.35 172.60,38.05 173.60,36.55              173.80,36.35 173.90,36.35 173.90,36.45              174.00,36.65 174.00,36.85 173.90,36.95 Z            M 166.40,32.55            C 166.90,31.75 166.90,31.25 166.60,31.05              166.30,30.75 165.70,30.85 164.90,31.35              163.60,32.25 162.40,33.35 161.50,34.65              160.50,36.05 159.70,37.55 159.20,39.25              162.10,37.65 164.60,35.35 166.40,32.55 Z            M 148.70,37.85            C 147.50,37.75 146.50,37.65 145.70,37.55              144.90,37.45 144.20,37.35 143.60,37.35              143.00,38.45 142.40,39.55 141.70,40.75              141.00,41.95 140.40,43.05 139.90,44.05              139.60,44.55 139.30,44.45 139.10,43.95              138.90,43.65 138.80,43.25 138.80,42.85              138.80,42.45 138.80,42.05 139.10,41.75              139.50,40.95 140.10,39.95 140.80,38.75              140.80,38.75 141.90,36.75 141.90,36.75              141.90,36.75 143.20,34.35 143.20,34.35              143.70,33.45 144.10,32.65 144.60,31.95              144.60,31.95 145.80,30.04 145.80,30.04              146.10,29.64 146.50,29.64 146.90,29.94              147.20,30.14 147.30,30.34 147.30,30.55              147.30,30.75 147.20,30.95 147.10,31.15              146.80,31.75 146.40,32.45 146.00,33.25              145.60,34.05 145.00,35.25 144.00,36.85              145.60,37.15 147.30,37.25 148.90,37.25              149.30,36.65 149.60,35.95 150.00,35.35              150.00,35.35 151.50,32.45 151.50,32.45              152.00,31.35 152.80,30.45 153.70,29.64              154.00,29.44 154.40,29.54 154.70,29.84              154.90,30.24 154.80,30.65 154.50,30.95              153.40,32.55 152.40,34.25 151.40,36.05              150.60,37.55 149.80,39.05 149.30,40.65              148.90,41.75 148.90,42.55 149.50,43.05              150.00,43.55 151.00,43.45 152.30,42.75              153.80,41.95 155.10,41.05 156.50,40.05              157.80,39.05 159.00,37.95 160.20,36.75              160.40,36.55 160.50,36.55 160.60,36.65              160.70,36.75 160.70,36.95 160.50,37.15              159.30,38.35 158.10,39.45 156.70,40.45              155.40,41.45 154.10,42.35 152.60,43.05              149.80,44.45 147.90,44.85 147.00,44.25              146.00,43.55 146.30,41.95 147.90,39.25              148.10,38.95 148.20,38.65 148.40,38.45              148.40,38.35 148.50,38.05 148.70,37.85 Z            M 143.60,35.95            C 143.00,36.75 142.40,37.45 141.70,38.35              141.00,39.15 140.30,39.95 139.50,40.65              138.70,41.35 137.90,42.05 137.10,42.65              136.30,43.25 135.50,43.75 134.70,44.25              132.20,45.55 130.60,45.85 129.90,44.95              129.20,44.15 129.30,42.35 130.10,39.65              130.30,38.95 130.60,38.25 130.90,37.55              131.20,36.85 131.50,36.05 132.00,35.15              130.90,36.65 129.80,38.05 128.60,39.35              127.60,40.55 126.40,41.55 125.00,42.45              123.80,43.25 122.90,43.25 122.40,42.75              121.90,42.25 122.00,41.25 122.70,40.05              123.60,38.55 124.60,37.15 125.80,35.85              126.90,34.65 128.20,33.65 129.50,32.65              130.10,32.15 130.80,31.75 131.50,31.45              132.20,31.15 132.90,30.95 133.60,30.95              133.90,30.34 134.20,29.74 134.50,29.14              134.80,28.64 135.10,28.14 135.50,27.64              135.60,27.44 135.80,27.44 135.90,27.34              136.10,27.34 136.20,27.44 136.20,27.74              136.20,27.84 136.20,28.04 136.30,28.14              136.30,28.14 136.40,28.44 136.40,28.44              136.40,28.44 136.50,28.74 136.50,28.74              136.60,28.94 136.60,29.14 136.50,29.34              135.30,31.25 134.20,33.15 133.40,35.15              132.60,36.95 132.10,38.75 131.70,40.55              131.40,41.95 131.60,42.95 132.10,43.45              132.60,43.95 133.60,43.95 134.90,43.35              135.70,43.05 136.40,42.55 137.00,42.05              137.80,41.45 138.50,40.85 139.20,40.15              139.90,39.45 140.60,38.75 141.30,37.95              141.90,37.25 142.50,36.45 143.10,35.65              143.20,35.45 143.40,35.35 143.50,35.45              143.70,35.65 143.80,35.75 143.60,35.95 Z            M 133.40,31.55            C 132.70,31.55 132.10,31.75 131.50,32.05              130.80,32.45 130.10,32.95 129.50,33.45              129.10,33.75 128.70,34.15 128.40,34.55              128.00,35.05 127.50,35.55 127.20,36.05              126.80,36.65 126.40,37.15 126.10,37.75              125.80,38.25 125.50,38.85 125.30,39.45              125.00,40.25 125.00,40.85 125.30,41.05              125.60,41.25 126.10,41.05 126.70,40.45              128.00,39.25 129.20,37.95 130.30,36.55              131.40,35.05 132.50,33.35 133.40,31.55 Z            M 139.20,4.73            C 139.40,5.43 139.50,6.23 139.50,6.93              139.40,7.63 139.30,8.33 139.00,9.03              138.70,9.73 138.30,10.44 137.80,11.04              137.20,11.84 136.60,12.54 135.90,13.24              135.20,13.94 134.40,14.74 133.50,15.64              132.60,16.54 131.60,17.44 130.70,18.44              130.70,18.44 127.80,21.14 127.80,21.14              126.80,22.04 126.00,22.84 125.20,23.54              124.40,24.24 123.70,24.84 122.80,25.64              122.00,26.44 121.10,27.14 120.30,27.94              119.50,28.74 118.60,29.44 117.70,30.04              116.90,30.65 116.00,31.25 115.10,31.65              115.10,31.65 114.80,31.75 114.80,31.75              114.70,31.85 114.50,31.85 114.40,32.05              114.30,32.15 114.20,32.25 114.20,32.45              113.90,32.95 113.70,33.45 113.40,34.05              113.10,34.65 112.80,35.25 112.60,35.85              112.30,36.45 112.10,37.05 111.80,37.65              111.50,38.25 111.30,38.75 111.20,39.15              111.00,39.75 110.80,40.45 110.70,41.15              110.60,41.75 110.60,42.35 110.80,42.95              110.90,43.15 111.10,43.35 111.30,43.35              111.60,43.35 111.90,43.35 112.10,43.15              112.80,42.75 113.40,42.25 113.90,41.75              114.80,40.85 115.60,39.85 116.10,38.65              116.30,38.25 116.40,37.95 116.50,37.55              116.60,37.25 116.70,36.85 116.80,36.55              116.90,36.25 116.90,35.95 116.80,35.65              116.70,34.95 116.60,34.35 116.50,33.65              116.40,32.95 116.40,32.15 116.40,31.45              116.40,30.95 116.60,30.65 117.00,30.65              117.20,30.65 117.40,30.65 117.60,30.65              117.80,30.65 118.00,30.65 118.10,30.45              118.20,30.34 118.40,30.34 118.50,30.45              118.50,30.45 118.50,30.45 118.50,30.55              118.60,30.75 118.70,30.95 118.70,31.25              118.70,32.25 118.70,33.25 118.80,34.25              118.90,35.05 119.10,35.95 119.30,36.75              119.50,37.35 119.90,37.75 120.50,37.85              121.10,37.95 121.70,37.95 122.30,37.65              123.30,37.15 124.20,36.65 125.00,36.05              125.90,35.35 126.80,34.55 127.60,33.75              127.80,33.55 128.00,33.45 128.10,33.55              128.20,33.65 128.20,33.75 128.00,33.95              127.00,35.05 125.90,35.95 124.70,36.75              123.50,37.65 122.20,38.35 120.80,38.95              120.20,39.15 119.70,39.25 119.10,39.35              118.50,39.35 118.20,39.25 118.00,38.95              117.80,38.65 117.60,38.45 117.40,38.45              117.20,38.45 117.10,38.55 117.00,38.75              116.50,39.75 115.80,40.75 115.00,41.55              114.40,42.35 113.60,42.95 112.80,43.55              111.90,44.15 111.00,44.65 110.10,45.05              109.30,45.55 108.30,45.35 107.70,44.65              107.40,44.15 107.30,43.55 107.50,43.05              107.80,41.55 108.30,40.15 108.90,38.75              109.60,37.15 110.40,35.75 111.10,34.35              111.30,34.05 111.50,33.75 111.70,33.45              111.90,33.15 112.10,32.85 112.30,32.45              113.30,30.85 114.30,29.14 115.50,27.44              116.70,25.74 117.80,23.94 119.00,22.14              119.60,21.24 120.30,20.34 121.10,19.24              121.90,18.14 122.70,17.14 123.60,16.04              124.50,14.94 125.40,13.84 126.30,12.84              127.20,11.84 128.10,10.74 129.00,9.73              129.70,9.03 130.50,8.23 131.40,7.33              132.20,6.53 133.10,5.83 134.00,5.13              134.50,4.73 135.00,4.43 135.50,4.13              136.00,3.83 136.60,3.63 137.20,3.63              137.50,3.63 137.90,3.73 138.10,3.93              138.90,3.93 139.10,4.33 139.20,4.73 Z            M 136.70,7.93            C 136.60,5.83 135.70,5.23 133.80,6.33              132.90,6.83 132.00,7.53 131.30,8.23              130.40,9.13 129.60,9.93 128.70,10.84              127.70,11.94 126.50,13.34 125.40,14.84              124.30,16.34 123.00,17.94 121.90,19.64              120.80,21.34 119.60,23.14 118.50,24.94              117.40,26.74 116.40,28.54 115.40,30.45              115.30,30.55 115.30,30.65 115.40,30.65              115.50,30.65 115.60,30.65 115.70,30.55              117.10,29.54 118.70,28.24 120.50,26.84              122.30,25.44 123.90,23.94 125.60,22.44              127.30,20.94 128.80,19.34 130.30,17.84              131.80,16.34 133.00,15.04 134.00,13.94              134.80,13.04 135.50,12.04 136.00,10.94              136.50,10.03 136.70,8.93 136.70,7.93 Z            M 109.20,25.84            C 109.40,26.54 109.30,27.24 109.00,27.94              107.80,29.94 106.50,31.95 105.10,33.85              103.60,35.85 102.00,37.75 100.50,39.65              98.00,42.65 95.60,45.55 93.50,48.25              91.40,50.96 89.50,53.66 87.80,56.16              87.00,57.36 86.20,58.66 85.50,59.96              84.80,61.26 84.10,62.56 83.50,63.96              82.90,65.26 82.50,66.46 82.10,67.86              81.80,69.06 81.60,70.26 81.60,71.57              81.40,72.97 81.90,74.37 82.90,75.47              84.00,76.37 85.50,76.87 86.90,76.77              87.90,76.77 88.90,76.67 89.90,76.47              91.00,76.17 92.20,75.87 93.40,75.47              93.40,75.47 97.00,74.37 97.00,74.37              98.20,73.97 99.20,73.67 100.10,73.47              101.20,73.17 102.30,73.07 103.40,73.07              104.20,73.07 104.90,73.57 105.20,74.37              105.30,74.67 105.30,75.07 105.20,75.37              105.10,75.77 105.00,76.07 104.90,76.27              104.80,76.47 104.60,76.67 104.50,76.67              104.40,76.67 104.40,76.47 104.40,76.17              104.50,75.87 104.50,75.47 104.50,75.17              104.50,74.87 104.30,74.67 104.10,74.57              103.60,74.37 103.00,74.37 102.40,74.37              101.80,74.47 101.00,74.57 100.20,74.67              99.40,74.77 98.70,74.97 97.80,75.17              96.90,75.37 96.00,75.57 95.00,75.87              94.00,76.17 93.00,76.37 92.00,76.57              91.00,76.77 90.00,76.97 89.20,77.07              85.50,77.57 82.70,76.97 80.60,75.47              79.50,74.77 78.90,73.67 78.80,72.37              78.70,70.97 79.00,69.46 79.60,68.16              80.50,66.16 81.50,64.26 82.70,62.36              84.00,60.26 85.40,58.16 86.90,56.06              88.40,53.96 89.90,51.86 91.50,49.85              93.10,47.85 94.50,46.05 95.90,44.35              95.90,44.35 96.50,43.55 96.50,43.55              96.50,43.55 97.10,42.75 97.10,42.75              96.90,42.95 96.60,43.05 96.30,43.15              96.00,43.25 95.70,43.35 95.40,43.45              95.00,43.65 94.50,43.55 94.10,43.35              93.80,43.05 93.70,42.55 93.80,42.15              93.90,41.65 94.00,41.15 94.20,40.45              94.40,39.85 94.60,39.25 94.80,38.75              95.20,37.65 95.60,36.45 96.00,35.25              96.30,34.25 96.60,33.25 96.70,32.15              96.80,31.25 96.30,30.95 95.10,31.25              94.10,31.55 93.10,31.95 92.20,32.55              92.00,32.65 91.80,32.55 91.70,32.45              91.60,32.25 91.70,32.15 91.90,32.05              93.00,31.55 94.00,31.15 95.10,30.75              96.20,30.34 97.30,30.04 98.50,29.74              99.10,29.64 99.50,29.74 99.60,30.04              99.70,30.55 99.70,31.05 99.40,31.55              99.40,31.55 98.20,34.55 98.20,34.55              97.80,35.65 97.40,36.65 97.20,37.45              97.00,38.15 96.80,38.75 96.60,39.45              96.40,40.05 96.40,40.55 96.40,41.15              96.40,41.55 96.60,41.85 96.90,41.85              97.30,41.95 97.60,41.85 97.90,41.55              98.00,41.55 98.00,41.45 98.10,41.45              100.50,38.55 102.70,35.45 104.70,32.25              106.20,30.14 107.20,27.74 107.60,25.14              107.70,23.94 107.30,22.74 106.50,21.94              106.30,21.74 106.30,21.64 106.40,21.54              106.50,21.44 106.70,21.44 106.90,21.64              107.40,22.24 107.90,22.94 108.30,23.64              108.50,24.54 108.90,25.14 109.20,25.84 Z            M 96.50,35.55            C 95.90,36.35 95.30,37.25 94.60,38.15              93.90,39.05 93.10,39.85 92.30,40.65              91.50,41.45 90.70,42.15 89.70,42.75              88.80,43.35 87.90,43.85 86.80,44.15              85.20,44.65 83.60,44.75 81.90,44.45              81.10,44.45 80.50,43.95 80.20,43.25              80.00,42.45 80.10,41.55 80.60,40.75              80.90,40.25 81.20,39.55 81.70,38.75              82.20,37.95 82.70,37.05 83.20,36.15              83.70,35.35 84.20,34.55 84.60,33.85              85.00,33.15 85.20,32.75 85.30,32.65              85.50,32.25 85.40,32.25 85.20,32.45              84.70,32.85 84.20,33.35 83.60,33.85              83.00,34.35 82.50,34.95 81.90,35.45              81.30,36.05 80.80,36.65 80.30,37.15              79.80,37.75 79.30,38.25 78.90,38.75              78.50,39.25 78.00,39.85 77.60,40.35              77.20,40.85 76.90,41.35 76.50,41.75              76.10,42.15 75.80,42.75 75.50,43.25              75.50,43.25 74.30,45.05 74.30,45.05              72.40,48.15 70.50,51.26 68.80,54.16              67.10,57.06 65.40,60.26 63.50,63.76              63.00,64.76 62.40,65.86 61.90,66.96              61.40,68.06 60.90,69.16 60.50,70.26              60.10,71.17 59.80,72.17 59.50,73.17              59.30,73.87 59.20,74.57 59.10,75.27              59.10,75.77 59.20,76.17 59.40,76.57              59.50,76.77 59.50,76.97 59.30,76.97              59.10,76.97 58.90,76.97 58.70,76.57              58.60,76.37 58.50,76.27 58.40,76.17              58.30,76.07 58.20,75.87 58.10,75.77              57.80,75.47 57.60,75.17 57.20,74.87              56.70,74.57 56.70,73.97 57.10,73.07              57.40,72.37 57.70,71.77 58.00,71.17              58.40,70.46 58.80,69.66 59.20,68.86              59.20,68.86 60.50,66.56 60.50,66.56              60.50,66.56 61.60,64.56 61.60,64.56              63.40,61.66 65.00,58.76 66.60,56.16              68.20,53.46 69.60,51.06 70.80,48.85              70.80,48.85 72.60,45.45 72.60,45.45              73.30,44.25 74.00,42.95 74.60,41.65              75.20,40.35 75.90,39.15 76.50,37.95              77.10,36.75 77.50,35.75 77.90,34.85              78.30,33.95 78.30,33.35 77.90,33.05              77.50,32.65 77.00,32.65 76.20,32.95              75.80,33.05 75.50,33.25 75.20,33.55              74.80,33.85 74.50,34.05 74.30,34.25              74.10,34.45 74.00,34.45 73.90,34.25              73.80,34.05 73.80,33.95 74.00,33.75              74.40,33.35 74.90,33.05 75.40,32.85              76.00,32.55 76.70,32.25 77.40,32.15              78.10,31.95 78.90,32.05 79.60,32.45              80.20,32.95 80.40,33.75 80.10,34.45              80.00,34.95 79.80,35.45 79.60,35.95              79.40,36.55 79.10,37.05 78.80,37.65              78.70,38.05 78.70,38.05 78.70,38.05              78.70,38.05 78.80,37.95 78.80,37.95              79.90,36.65 81.20,35.25 82.70,33.85              84.10,32.45 85.50,31.15 86.80,29.94              87.10,29.74 87.40,29.44 87.70,29.24              88.00,29.04 88.30,28.84 88.50,28.74              88.90,28.44 89.20,28.44 89.30,28.64              89.40,28.84 89.30,29.04 89.00,29.44              88.70,29.84 88.20,30.45 87.80,31.15              87.40,31.85 86.80,32.75 86.10,33.85              85.50,34.95 84.90,36.05 84.40,37.15              83.90,38.15 83.50,39.25 83.20,40.35              82.40,43.35 83.70,44.45 86.90,43.65              88.90,43.05 90.70,41.95 92.10,40.45              93.70,38.85 95.10,37.05 96.30,35.25              96.50,34.95 96.60,34.95 96.80,35.05              96.70,35.15 96.70,35.35 96.50,35.55 Z            M 99.40,5.23            C 99.40,6.23 99.20,7.13 98.80,8.03              98.50,8.93 98.20,9.83 97.80,10.64              97.70,10.74 97.60,10.84 97.50,10.84              97.40,10.84 97.30,10.74 97.30,10.74              97.30,10.74 97.30,10.74 97.30,10.74              97.30,10.84 97.40,10.64 97.60,10.03              97.80,9.43 97.90,8.83 97.90,8.23              98.00,6.23 96.90,4.23 95.10,3.33              93.70,2.63 91.30,2.23 87.90,2.13              85.40,2.13 82.90,2.43 80.40,3.03              78.40,3.43 76.40,4.23 74.70,5.43              72.70,6.93 71.60,9.23 71.70,11.64              71.90,14.34 72.40,16.94 73.30,19.54              74.20,22.04 74.70,24.74 74.90,27.44              74.90,29.54 74.40,31.55 73.50,33.35              72.20,36.75 69.90,39.75 66.90,41.85              65.00,43.15 63.40,43.85 62.40,43.85              62.10,43.85 61.90,43.85 61.60,43.75              61.20,43.75 61.00,43.25 61.00,42.45              61.00,42.45 61.00,42.25 61.00,42.25              61.20,40.65 61.70,39.05 62.60,37.65              63.50,35.95 64.80,34.35 66.30,33.15              68.40,31.35 69.80,30.45 70.60,30.45              70.70,30.45 70.80,30.55 70.90,30.65              70.90,30.65 70.90,30.75 70.90,30.75              70.90,30.85 70.80,30.95 70.70,31.05              69.90,31.25 69.20,31.65 68.60,32.15              65.90,34.55 64.10,37.85 63.60,41.45              63.60,41.45 63.60,41.85 63.60,41.85              63.60,42.35 63.80,42.55 64.10,42.55              64.30,42.55 64.50,42.45 64.70,42.45              66.30,41.65 67.80,40.45 69.00,39.05              71.60,35.95 72.90,32.75 72.90,29.54              72.80,26.74 72.20,23.94 71.30,21.24              70.40,18.64 69.90,15.84 69.70,13.14              69.70,10.84 70.60,8.73 72.20,7.13              74.20,4.93 76.70,3.33 79.50,2.43              83.40,1.23 87.50,0.63 91.60,0.63              93.30,0.63 94.90,0.93 96.50,1.63              98.20,2.53 99.20,3.73 99.40,5.23 Z            M 65.60,34.55            C 64.50,35.35 63.40,36.15 62.30,36.85              61.10,37.55 59.90,38.05 58.60,38.55              57.60,39.05 56.30,39.05 55.30,38.65              55.00,39.15 54.80,39.55 54.50,40.05              54.20,40.55 53.90,40.95 53.60,41.35              52.80,42.35 51.80,43.25 50.70,43.95              50.00,44.45 49.10,44.65 48.20,44.45              47.50,44.25 46.90,43.65 46.70,42.95              46.50,41.85 46.60,40.65 47.00,39.65              47.30,38.85 47.70,38.05 48.20,37.25              48.70,36.45 49.40,35.65 50.00,34.95              50.70,34.25 51.40,33.55 52.20,32.95              52.90,32.45 53.60,31.95 54.40,31.55              54.90,31.35 55.50,31.15 56.00,31.15              56.10,31.05 56.10,31.05 56.20,30.95              56.30,30.95 56.30,30.85 56.40,30.85              56.60,30.75 56.80,30.65 57.10,30.65              57.10,30.65 57.90,30.55 57.90,30.55              58.10,30.55 58.20,30.65 58.20,30.85              58.20,31.05 58.20,31.35 58.10,31.55              57.80,32.25 57.60,32.85 57.30,33.55              57.00,34.25 56.80,34.85 56.70,35.45              56.40,36.15 56.60,36.95 57.10,37.55              57.70,38.05 58.50,38.15 59.20,37.85              60.30,37.45 61.40,37.05 62.40,36.45              63.50,35.85 64.50,35.15 65.30,34.35              65.50,34.15 65.60,34.15 65.70,34.25              65.80,34.35 65.70,34.45 65.60,34.55 Z            M 55.80,31.85            C 55.60,31.55 55.10,31.55 54.50,31.85              53.80,32.25 53.20,32.85 52.70,33.55              52.20,34.15 51.80,34.75 51.40,35.35              51.00,36.05 50.60,36.65 50.30,37.35              50.00,38.05 49.70,38.65 49.40,39.35              49.20,39.95 49.00,40.45 48.80,41.05              48.50,42.55 48.60,43.35 49.30,43.65              50.00,43.85 50.90,43.35 52.00,42.05              53.00,40.85 53.90,39.65 54.50,38.25              54.00,37.35 54.00,36.25 54.60,35.45              54.80,34.95 55.00,34.35 55.20,33.85              55.50,33.05 55.70,32.45 55.80,31.85 Z            M 44.60,4.43            C 44.60,4.53 44.60,4.63 44.60,4.73              44.60,4.83 44.60,4.93 44.60,5.03              44.60,5.03 44.50,5.33 44.50,5.33              44.50,5.33 44.50,5.63 44.50,5.63              44.50,5.63 44.50,5.73 44.50,5.73              44.50,5.73 44.50,5.83 44.50,5.83              44.50,5.83 44.50,5.93 44.50,5.93              44.50,6.03 44.40,6.13 44.20,6.13              44.20,6.13 44.10,6.13 44.00,6.03              43.40,5.43 42.60,5.13 41.80,5.13              40.90,5.13 40.00,5.43 39.20,5.93              38.30,6.63 37.40,7.33 36.60,8.13              35.90,8.93 35.10,9.73 34.50,10.54              34.00,11.24 33.50,12.04 33.00,12.74              32.50,13.44 32.00,14.34 31.50,15.14              33.10,16.34 34.70,17.64 36.10,19.04              37.50,20.44 38.70,21.84 39.80,23.44              42.30,26.74 43.60,30.75 43.70,34.95              43.70,34.95 43.70,36.05 43.70,36.05              43.60,38.25 42.90,40.25 41.60,42.05              40.30,43.85 38.50,45.25 36.50,46.15              34.60,47.05 32.60,47.75 30.50,48.25              28.50,48.75 26.40,48.95 24.30,48.95              23.80,48.95 23.40,48.95 22.90,48.95              22.40,48.95 22.00,48.95 21.50,48.85              19.70,48.65 17.90,48.35 16.10,47.85              14.40,47.35 12.70,46.85 11.00,46.15              9.80,45.65 8.60,45.15 7.50,44.55              6.40,43.95 5.40,43.55 4.50,43.05              4.10,42.85 3.90,42.75 3.90,42.65              3.90,42.55 4.10,42.25 4.40,41.95              4.50,41.85 4.60,41.75 4.70,41.75              4.70,41.75 5.00,41.55 5.00,41.55              5.00,41.55 4.00,41.45 4.00,41.45              3.70,41.45 3.30,41.35 3.00,41.25              2.50,41.15 1.90,41.05 1.40,40.95              0.90,40.85 0.50,40.65 0.10,40.55              -0.10,40.55 -0.20,40.45 -0.20,40.25              -0.20,40.15 -0.10,40.15 0.10,40.15              0.10,40.15 0.30,40.15 0.30,40.15              1.10,40.35 1.90,40.55 2.70,40.65              3.60,40.75 4.40,40.85 5.30,40.85              5.30,40.85 5.70,40.85 5.70,40.85              5.70,40.85 6.30,40.45 6.30,40.45              6.50,40.35 6.70,40.35 6.90,40.35              7.30,40.35 7.60,40.45 7.90,40.65              7.90,40.65 8.10,40.75 8.10,40.75              9.30,40.65 10.40,40.35 11.40,39.75              13.00,38.85 14.40,37.55 15.50,36.15              16.40,35.05 17.50,33.65 18.70,32.05              19.90,30.45 21.10,28.74 22.30,26.94              23.50,25.14 24.70,23.34 25.90,21.64              27.10,19.94 28.10,18.34 28.90,16.94              28.90,16.94 29.50,16.14 29.50,16.14              29.70,15.84 29.90,15.54 30.10,15.24              30.00,15.14 29.90,15.04 29.70,15.04              29.60,14.94 29.50,14.94 29.40,14.84              28.00,13.94 26.50,13.04 25.00,12.34              23.60,11.64 22.00,11.14 20.50,10.84              19.80,10.74 19.10,10.64 18.40,10.54              17.70,10.44 17.10,10.44 16.40,10.44              14.10,10.44 11.80,10.94 9.80,11.94              7.70,13.04 6.10,14.74 5.00,16.84              4.80,17.14 4.70,17.44 4.60,17.74              4.50,18.04 4.40,18.34 4.40,18.64              4.40,18.84 4.30,18.94 4.20,18.94              4.10,18.94 4.00,18.84 3.90,18.74              3.60,18.44 3.40,18.24 3.20,17.94              3.20,17.94 2.70,17.34 2.70,17.34              2.50,17.14 2.40,16.94 2.40,16.74              2.40,16.74 2.40,16.64 2.40,16.54              2.40,16.44 2.40,16.44 2.40,16.34              2.60,15.44 3.00,14.54 3.50,13.74              4.00,12.84 4.70,12.04 5.50,11.34              6.20,10.74 7.00,10.24 7.90,9.83              8.80,9.43 9.80,9.13 10.70,9.03              11.30,8.93 11.80,8.83 12.30,8.83              12.80,8.83 13.30,8.73 13.80,8.73              14.60,8.73 15.40,8.73 16.20,8.83              17.00,8.93 17.70,9.03 18.50,9.23              20.60,9.73 22.60,10.34 24.50,11.24              26.30,12.04 28.10,12.94 29.80,14.04              29.80,14.04 30.10,14.24 30.10,14.24              30.10,14.24 30.40,14.44 30.40,14.44              31.00,13.64 31.50,12.94 32.10,12.24              32.70,11.54 33.20,10.84 33.70,10.34              34.80,9.13 35.90,7.83 37.10,6.43              38.20,5.13 39.30,3.93 40.70,2.83              41.20,2.43 41.80,2.23 42.40,2.23              43.50,2.23 44.40,3.03 44.50,4.13              44.50,4.23 44.50,4.33 44.60,4.43              44.60,4.43 44.60,4.43 44.60,4.43 Z            M 40.30,35.15            C 40.30,34.65 40.30,34.25 40.30,33.85              40.30,33.45 40.20,32.95 40.20,32.45              39.90,29.14 38.80,26.04 37.20,23.14              35.60,20.34 33.50,17.84 31.00,15.84              31.00,15.84 29.70,17.84 29.70,17.84              29.70,17.84 28.50,19.74 28.50,19.74              26.70,22.54 25.00,25.34 23.20,27.94              21.50,30.55 19.70,32.95 17.70,35.35              16.60,36.65 15.40,37.85 14.00,38.85              12.80,39.65 11.50,40.25 10.20,40.85              10.00,40.95 9.80,40.95 9.60,41.05              9.40,41.15 9.20,41.15 9.00,41.25              10.00,41.85 11.00,42.45 12.10,42.95              13.10,43.45 14.10,43.95 15.10,44.45              16.80,45.15 18.60,45.85 20.40,46.35              22.30,46.85 24.20,47.25 26.10,47.45              26.50,47.45 26.80,47.55 27.20,47.55              27.20,47.55 28.20,47.55 28.20,47.55              30.30,47.55 32.40,47.15 34.30,46.35              36.10,45.55 37.60,44.05 38.60,42.25              39.20,41.15 39.60,40.05 39.80,38.85              40.10,37.65 40.30,36.45 40.30,35.15 Z"></path></svg>
